<svg xmlns="http://www.w3.org/2000/svg" version="1.1" xmlns:xlink="http://www.w3.org/1999/xlink" xmlns:svgjs="http://svgjs.dev/svgjs" width="957" height="369" preserveAspectRatio="none" viewBox="0 0 957 369">
    <g mask="url(&quot;#SvgjsMask1044&quot;)" fill="none">
        <rect width="957" height="369" x="0" y="0" fill="rgba(0, 29, 63, 1)"></rect>
        <path d="M0,354.461C66.937,355.902,132.811,329.928,185.405,288.496C235.392,249.118,260.789,188.996,284.832,130.079C308.003,73.297,330.725,14.408,322.027,-46.3C313.326,-107.023,276.042,-158.039,236.795,-205.184C196.887,-253.123,155.282,-308.471,94.017,-320.194C33.712,-331.733,-18.429,-280.556,-77.93,-265.406C-140.524,-249.469,-219.52,-275.571,-264.249,-228.973C-308.787,-182.574,-277.527,-104.619,-292.343,-42.033C-309.198,29.168,-381.048,93.938,-357.054,163.061C-333.375,231.278,-243.988,246.506,-180.345,280.622C-121.91,311.946,-66.286,353.034,0,354.461" fill="#00152d"></path>
        <path d="M957 692.655C1017.103 693.037 1062.895 643.957 1117.335 618.486 1181.997 588.233 1262.737 584.829 1307.064 528.869 1354.4940000000001 468.992 1375.971 385.816 1360.963 310.919 1346.179 237.139 1276.243 191.926 1227.981 134.194 1178.699 75.24200000000002 1146.118-3.4390000000000214 1074.627-31.601999999999975 1001.352-60.46800000000002 918.208-42.43000000000001 843.592-17.232000000000028 771.002 7.281999999999982 701 46.377999999999986 657.321 109.32600000000002 615.613 169.434 617.65 246.356 610.1890000000001 319.136 603.033 388.941 577.2 466.007 614.671 525.336 651.86 584.218 735.4010000000001 585.874 797.97 616.456 851.872 642.802 897.005 692.274 957 692.655" fill="#002551"></path>
    </g>
    <defs>
        <mask id="SvgjsMask1044">
            <rect width="957" height="369" fill="#ffffff"></rect>
        </mask>
    </defs>
</svg>