<svg xmlns="http://www.w3.org/2000/svg" version="1.1" xmlns:xlink="http://www.w3.org/1999/xlink" xmlns:svgjs="http://svgjs.dev/svgjs" width="1440" height="560" preserveAspectRatio="none" viewBox="0 0 1440 560">
    <g mask="url(&quot;#SvgjsMask1244&quot;)" fill="none">
        <path d="M1560 560L0 560 L0 345.66Q89.96 315.62, 120 405.58Q169.64 335.22, 240 384.85Q270.49 343.34, 312 373.83Q365.74 307.57, 432 361.31Q480 289.31, 552 337.32Q646.13 311.45, 672 405.58Q707.25 320.82, 792 356.07Q857.09 301.16, 912 366.25Q935.95 318.2, 984 342.15Q1079.35 317.5, 1104 412.85Q1121.15 358, 1176 375.16Q1204.21 331.37, 1248 359.58Q1274.14 313.73, 1320 339.87Q1399.01 298.88, 1440 377.88Q1513.87 331.75, 1560 405.61z" fill="#182f5d"></path>
        <path d="M1512 560L0 560 L0 462.66Q8.8 399.46, 72 408.25Q139.45 355.7, 192 423.15Q244.7 403.85, 264 456.55Q298.35 370.9, 384 405.25Q449.61 350.86, 504 416.46Q571.07 363.53, 624 430.6Q703.54 390.14, 744 469.69Q747.37 401.06, 816 404.42Q846.49 362.91, 888 393.4Q960.23 345.63, 1008 417.85Q1090.49 380.34, 1128 462.83Q1154.19 417.02, 1200 443.21Q1215.65 386.87, 1272 402.52Q1338.65 349.17, 1392 415.82Q1462.01 365.82, 1512 435.83z" fill="#25467d"></path>
        <path d="M1512 560L0 560 L0 463.11Q63.86 406.98, 120 470.84Q202.66 433.5, 240 516.16Q292.6 448.75, 360 501.35Q403.21 424.56, 480 467.78Q545.34 413.12, 600 478.45Q652.74 459.19, 672 511.92Q701.85 469.77, 744 499.62Q786.62 422.24, 864 464.86Q923.38 452.24, 936 511.62Q941.19 444.81, 1008 450Q1076.14 398.14, 1128 466.29Q1180.98 447.27, 1200 500.26Q1234.1 414.36, 1320 448.45Q1366.41 422.86, 1392 469.27Q1460.65 417.92, 1512 486.58z" fill="#356cb1"></path>
        <path d="M1488 560L0 560 L0 552.6Q50.51 531.11, 72 581.62Q79.59 517.21, 144 524.8Q173.1 481.9, 216 511Q268.62 491.62, 288 544.24Q336.86 473.1, 408 521.95Q466.33 508.28, 480 566.61Q524.93 491.54, 600 536.46Q649.16 465.63, 720 514.79Q811.3 486.09, 840 577.39Q874.9 492.29, 960 527.19Q1031.48 478.67, 1080 550.16Q1096.13 494.29, 1152 510.43Q1197.62 484.04, 1224 529.66Q1274.56 508.22, 1296 558.78Q1306.4 497.18, 1368 507.58Q1439.81 459.38, 1488 531.19z" fill="white"></path>
    </g>
    <defs>
        <mask id="SvgjsMask1244">
            <rect width="1440" height="560" fill="#ffffff"></rect>
        </mask>
    </defs>
</svg>