<svg id="eWKM9bnQdzj1" xmlns="http://www.w3.org/2000/svg" xmlns:xlink="http://www.w3.org/1999/xlink" viewBox="0 0 1632.24 2103.5" shape-rendering="geometricPrecision" text-rendering="geometricPrecision"><g style="isolation:isolate"><g><g><g><g><path d="M1191.98,600.71L1632.24,1673.8L642.98,2103.5L194.35,1010.01c-125.81-306.66-4.49-646.89,271-759.92c275.49-113.02,600.82,43.96,726.63,350.62Z" fill="#000916"/><g><polygon id="eWKM9bnQdzj9" points="694.94,247.56 869.853966,-0.796625 1008.4,376.41 694.94,247.56" transform="translate(14.548688 11.609125)" fill="#000916"/><polygon id="eWKM9bnQdzj10" points="300.14,409.54 0,357.89 167.49,721.41 300.14,409.54" fill="#000916"/></g><g id="eWKM9bnQdzj11"><g transform="translate(75.393755 40.227427)"><path d="M1414.01,721.3c-1.44.59-3.02.91-4.67.88-65.93-.89-188.17,6.9-266.12,69.07-4.18,3.34-10.08,3.47-14.41.32s-6.02-8.8-4.14-13.81c18.48-49.12,54.52-92.67,101.49-122.63s101.66-44.29,153.99-40.34c6.55.49,11.46,6.2,10.96,12.75-.49,6.55-6.21,11.46-12.75,10.96-83.21-6.28-167.85,39.01-212.28,109.3c80.99-44.11,184.2-50.21,243.58-49.41c6.57.09,11.82,5.48,11.73,12.05-.07,4.91-3.1,9.09-7.38,10.85v.01Z" transform="translate(3.072743 0)" fill="#000916"/><path d="M1409.51,801.69c-3.02,1.24-6.54,1.24-9.71-.3-71.18-34.51-163.39-23.3-224.23,27.25-5.06,4.2-12.55,3.5-16.75-1.55s-3.51-12.55,1.55-16.75c33.5-27.84,75.19-45.46,120.55-50.97c45.37-5.51,90.06,1.62,129.25,20.62c5.91,2.87,8.38,9.98,5.51,15.89-1.33,2.74-3.57,4.74-6.18,5.81h.01Z" fill="#000916"/></g><g><path d="M120.98,1251.79c1.44-.59,2.78-1.47,3.95-2.65c46.31-46.94,138.8-127.24,237.94-137.74c5.32-.56,9.61-4.61,10.48-9.89s-1.89-10.49-6.75-12.73c-47.65-21.99-103.9-27.68-158.37-16.02-54.48,11.66-103.47,39.87-137.95,79.43-4.32,4.95-3.8,12.46,1.15,16.78s12.47,3.8,16.78-1.15c54.82-62.91,146.88-90.12,227.88-71.29-88.63,25.48-166.38,93.62-208.1,135.9-4.61,4.68-4.56,12.21.11,16.82c3.5,3.45,8.6,4.29,12.87,2.54h.01Z" fill="#000916"/><path d="M180.65,1305.86c3.02-1.24,5.52-3.71,6.7-7.03c26.43-74.56,99.94-131.34,178.75-138.08c6.55-.56,11.39-6.32,10.84-12.86-.56-6.54-6.32-11.4-12.86-10.84-43.4,3.71-85.45,20.45-121.62,48.38-36.17,27.94-62.97,64.4-77.53,105.45-2.2,6.19,1.04,12.99,7.24,15.18c2.87,1.02,5.87.87,8.48-.21v.01Z" fill="#000916"/></g></g></g><polygon id="eWKM9bnQdzj18" points="172.69,598.59 93.69,440.14 215.06,469.26 172.69,598.59" fill="#dbdbdb"/><polygon id="eWKM9bnQdzj19" points="909.69,296.22 854.64,127.94 788.7,233.91 909.69,296.22" transform="translate(13.342292-7.844081)" fill="#dbdbdb"/><path d="M726.64,868.53l-40.21-98c12.45-6.35,20.36-14.46,18.31-19.44-2.37-5.78-17.27-5.15-33.27,1.41s-27.05,16.58-24.68,22.36c2.04,4.98,13.37,5.2,26.69.98l40.21,98-40.42,81.84l12.54,6.2l39.09-79.14l83.4,28.88l4.58-13.22-86.25-29.87h.01Z" fill="#dbdbdb"/><g><g><path d="M383.93,1048.91c-28.49,0-56.53-5-83.32-14.88-15.37-5.65-30.18-12.88-44.02-21.49-4.03-2.49-8.02-5.13-11.86-7.85-26.5-18.69-48.7-42.21-65.98-69.92-5.77-9.24-8.95-14.33-16.12-14.33-3.81,0-7.8,1.64-14.41,4.35-1.47.61-2.93,1.23-4.38,1.85-3.38,1.44-6.58,2.8-9.87,3.96-2.71.96-5.45,1.44-8.14,1.44-8.58,0-15.82-4.97-18.89-12.98-3.99-10.38.82-21.13,11.69-26.15c2.68-1.24,5.93-2.19,9.38-3.2c8.05-2.36,17.17-5.04,20.68-12.82c3.21-7.13.84-15.49-1.45-23.57-.98-3.44-1.9-6.69-2.36-9.68-6.72-43.82-1.2-88.77,15.97-130.01c16.93-40.67,44.32-75.79,79.21-101.58c14.46-10.7,30.17-19.72,46.71-26.82c3.14-1.34,6.03-2.51,8.81-3.59c14.04-5.42,28.56-9.58,43.17-12.36c5.58-1.07,11.25-1.95,16.86-2.62c9.65-1.15,19.44-1.74,29.1-1.74c6.62,0,13.32.28,19.9.82c33.58,2.75,65.55,12.26,95.03,28.29c17.78,9.65,34.26,21.53,48.99,35.29c9.48,8.82,18.36,18.55,26.4,28.94c3.58,4.63,7.7,8.91,13.52,8.91c2.99,0,5.99-1.12,9.45-3.52.82-.55,1.74-1.24,2.82-2.13c16.57-13.49,36.18-21.69,58.28-24.36c13.87-1.68,14.88-10.11,14.04-18.13-8.98-86.11,25.78-167.97,93.03-219.24l1.08-.81c16.96-12.8,35.73-23.4,55.79-31.52c2.2-.9,4.22-1.69,6.2-2.43c20.96-7.85,42.85-12.71,65.08-14.43c2.53-.2,5.08-.36,7.6-.47c3.76-.18,7.55-.27,11.29-.27c12.32,0,24.74.96,36.91,2.86c36.16,5.59,71.17,19.57,101.24,40.41c13.13,9.09,25.36,19.5,36.37,30.94c11.62,12.09,22.03,25.5,30.93,39.85c3.27,5.3,5.44,8.81,8.03,11.11c2.32,2.11,4.96,3.16,8,3.16c3.79,0,7.77-1.62,14.35-4.31l.14-.06c1.62-.66,3.23-1.35,4.83-2.03c3.58-1.52,6.96-2.96,10.42-4.15c2.9-1,5.82-1.5,8.66-1.5c9.01,0,16.2,4.98,19.22,13.31c3.89,10.69-1.5,21.64-13.11,26.62-1.06.46-2.12.92-3.17,1.38-5.56,2.42-11.31,4.93-17.02,6.64-14.47,4.31-11.81,15.44-10.53,20.8c14.23,59.78,7.61,115.84-19.66,166.62-39.7,73.94-97.48,117.24-171.74,128.71-13.12,2.04-26.92,3.07-41.04,3.07-4.62,0-9.36-.11-14.08-.33-19.93-.93-39.03-3.77-56.77-8.46-15.87-4.21-30.98-9.96-44.91-17.08-1.68-.85-3.01-1.54-4.2-2.19-46.12-24.81-81.98-66.06-106.61-122.6-3.36-7.72-8.33-15.62-19.72-15.62-2.1,0-4.4.25-7.03.78-18.93,3.77-35.39,11.64-50.33,24.06-7.3,6.07-8.8,12.54-5.03,21.62c25.03,60.49,25.14,126.65.31,186.29-24.84,59.67-71.89,106.22-132.47,131.08-23.62,9.69-48.41,15.55-73.69,17.41-5.83.43-11.75.65-17.59.65l.01.01Z" fill="#06d7a0"/><path d="M913.19,355.44c12.04,0,24.17.94,36.07,2.8c35.32,5.47,69.53,19.12,98.91,39.48c12.82,8.88,24.78,19.05,35.52,30.21c11.36,11.82,21.52,24.91,30.2,38.91c3.52,5.7,5.85,9.48,9.03,12.32c3.39,3.06,7.34,4.61,11.75,4.61c4.89,0,9.49-1.88,16.46-4.72l.15-.06c1.66-.68,3.31-1.38,4.9-2.06c3.48-1.48,6.78-2.88,10.04-4.01c2.33-.8,4.64-1.2,6.86-1.2c6.66,0,11.76,3.51,13.98,9.65c2.87,7.89-1.17,15.76-10.09,19.59-1.06.46-2.12.92-3.18,1.38-5.66,2.47-11,4.8-16.37,6.41-12.96,3.86-17.8,13.09-14.37,27.43c13.9,58.42,7.46,113.16-19.14,162.7-38.83,72.31-95.24,114.65-167.69,125.83-12.83,1.99-26.34,3.01-40.18,3.01-4.53,0-9.18-.11-13.82-.32-19.54-.91-38.25-3.7-55.59-8.27-15.49-4.12-30.23-9.72-43.85-16.68-1.6-.81-2.88-1.48-4.03-2.1h-.02c0,0-.02-.03-.02-.03-44.97-24.19-80-64.53-104.11-119.9-3.84-8.83-10.14-18.97-24.83-18.97-2.47,0-5.13.29-8.12.89-19.86,3.96-37.14,12.21-52.8,25.24-9.13,7.6-11.29,16.77-6.61,28.03c24.46,59.12,24.58,123.76.32,182.03-24.27,58.29-70.24,103.77-129.44,128.07-23.08,9.47-47.29,15.19-71.98,17-5.69.42-11.48.63-17.18.63-27.83,0-55.22-4.89-81.4-14.53-15.01-5.52-29.48-12.58-43.02-21-3.91-2.42-7.81-4.99-11.57-7.65-25.88-18.26-47.57-41.24-64.46-68.32-5.91-9.47-10.59-16.94-20.85-16.95-4.91,0-9.53,1.89-16.55,4.77-1.48.61-2.95,1.24-4.42,1.86-3.3,1.41-6.43,2.74-9.56,3.84-2.11.75-4.22,1.12-6.27,1.12-6.31,0-11.43-3.52-13.69-9.41-2.93-7.63.62-15.3,8.83-19.09c2.31-1.07,5.37-1.96,8.61-2.91c8.75-2.57,19.63-5.76,24.2-15.88c4.05-8.98,1.28-18.76-1.17-27.38-.93-3.27-1.8-6.36-2.21-9-6.57-42.81-1.17-86.73,15.6-127.02c16.54-39.73,43.3-74.05,77.39-99.24c14.11-10.44,29.45-19.25,45.55-26.17c3.1-1.32,5.93-2.47,8.65-3.52c13.72-5.3,27.92-9.37,42.22-12.08c5.44-1.04,10.98-1.9,16.46-2.56c9.43-1.13,18.99-1.7,28.43-1.7c6.47,0,13.01.27,19.45.8C436.98,574,468.2,583.3,497,598.95c17.36,9.43,33.46,21.02,47.85,34.48c9.25,8.61,17.92,18.12,25.78,28.26c2.78,3.59,8.57,11.07,17.93,11.07c5.45,0,9.78-2.54,12.57-4.47c1.01-.68,2.03-1.46,3.21-2.42c15.75-12.82,34.4-20.62,55.44-23.16c4.74-.57,11.53-2.02,15.78-7.95c3.72-5.19,3.67-11.15,3.13-16.29-8.74-83.82,24.9-163.49,90.06-213.62l1.87-1.41c16.57-12.51,34.91-22.87,54.56-30.82c2.12-.87,4.09-1.64,6.03-2.36c20.46-7.67,41.84-12.41,63.58-14.09c2.44-.19,4.93-.35,7.43-.45c3.65-.17,7.35-.26,11-.26m0-11.15c-3.84,0-7.68.09-11.53.27-2.6.11-5.19.27-7.79.48-22.4,1.74-44.79,6.59-66.6,14.77-2.13.8-4.24,1.62-6.34,2.49-20.79,8.41-39.9,19.29-57.06,32.24h-.02c-68.16,51.39-105.66,135.08-96.28,225.08.84,8.03-.73,10.99-9.16,12.01-22.65,2.74-43.47,11.2-61.14,25.58-.88.72-1.69,1.34-2.47,1.86-2.44,1.69-4.43,2.53-6.27,2.53-3.04,0-5.65-2.27-9.11-6.75-8.32-10.74-17.35-20.61-27-29.6-15.31-14.3-32.18-26.36-50.13-36.11-30.04-16.33-63.16-26.16-97.23-28.94-6.75-.56-13.54-.84-20.36-.84-9.89,0-19.83.59-29.76,1.78-5.75.68-11.5,1.58-17.24,2.68-14.85,2.82-29.63,7.03-44.14,12.63-3.01,1.16-6.01,2.39-9,3.66-17.17,7.38-33.18,16.63-47.82,27.46-72.16,53.33-111.51,144.82-97.38,236.92c1.58,10.24,7.76,22.3,4.24,30.11-3.63,8.04-17.87,8.89-27.32,13.25-13.56,6.26-19.63,20.02-14.56,33.21c3.99,10.41,13.41,16.56,24.1,16.56c3.25,0,6.62-.57,9.99-1.76c4.92-1.74,9.69-3.92,14.51-5.91c5.99-2.46,9.58-3.93,12.29-3.93c4.08,0,6.17,3.34,11.39,11.7c18.02,28.88,41.11,52.92,67.49,71.52c3.97,2.8,8.01,5.48,12.14,8.03c14.27,8.87,29.36,16.22,45.03,21.98c27.17,10.01,56.03,15.22,85.25,15.22c5.99,0,11.99-.22,18-.66c25.36-1.86,50.78-7.71,75.39-17.81c128.03-52.54,188.18-196.65,135.19-324.68-2.87-6.9-1.86-10.78,3.44-15.2c14.07-11.69,29.79-19.27,47.85-22.88c2.22-.44,4.18-.67,5.94-.67c7.08,0,10.88,3.71,14.6,12.27c24.95,57.28,61.41,99.64,109.05,125.27c1.43.78,2.88,1.53,4.33,2.26c14.37,7.34,29.71,13.17,46.02,17.51c18.11,4.78,37.43,7.68,57.94,8.63c4.84.22,9.61.33,14.34.33c14.48,0,28.45-1.05,41.89-3.14c76.46-11.8,135.74-56.96,175.8-131.58c28.8-53.63,34.26-111.32,20.17-170.56-1.8-7.53-1.37-11.76,6.71-14.16c7.12-2.13,13.95-5.29,20.79-8.24c14.37-6.16,21.04-20.21,16.15-33.64-3.88-10.71-13.38-16.99-24.46-16.99-3.38,0-6.91.58-10.47,1.81-5.27,1.82-10.37,4.17-15.55,6.29-6.05,2.47-9.67,3.96-12.39,3.96-1.65,0-2.97-.55-4.3-1.76-1.96-1.74-3.93-4.92-6.99-9.88-9.24-14.89-19.88-28.53-31.65-40.78-11.42-11.87-23.89-22.43-37.21-31.65-30.98-21.47-66.49-35.6-103.56-41.34-12.45-1.94-25.08-2.93-37.78-2.93v0l.04.04Z" fill="#009b6f"/></g><path style="mix-blend-mode:soft-light" d="M1054.52,388.56L957.94,835.73c-17.83,2.77-36.57,3.71-56.23,2.8-40.86-1.91-76.99-11.53-108.29-28.4L893.87,345.04c57.04-4.49,113.99,11.17,160.65,43.52Z" fill="#06d7a0"/><path style="mix-blend-mode:soft-light" d="M502.29,589.14L401.93,1053.82c-57.08,4.21-113.86-11.72-160.43-44.57l96.2-445.44c56.92-10.86,114.93-1.66,164.58,25.33h.01Z" fill="#06d7a0"/><path style="mix-blend-mode:soft-light" d="M405.06,560.2L298.68,1039.26c-15.67-5.77-30.76-13.11-45.03-21.98l101.3-456.14c16.77-2.01,33.56-2.31,50.11-.94Z" fill="#06d7a0"/><path style="mix-blend-mode:soft-light" d="M594.81,659.07L532.73,938.63c-2.92,13.14-15.93,21.43-29.06,18.51-13.14-2.92-21.43-15.93-18.51-29.07l67.25-302.82c9.65,8.98,18.69,18.86,27,29.6c5.56,7.18,8.94,8.7,15.39,4.22h.01Z" fill="#06d7a0"/><path style="mix-blend-mode:soft-light" d="M293.57,576.45l-53,238.64c-2.91,13.14-15.93,21.43-29.07,18.49-13.13-2.92-21.41-15.91-18.49-29.06l43.74-196.95c14.64-10.83,30.65-20.09,47.82-27.46c2.99-1.27,5.99-2.5,9-3.66Z" fill="#06d7a0"/><path style="mix-blend-mode:soft-light" d="M950.96,347.22L843.77,829.9l-46.02-17.51L901.66,344.56c16.57-.78,33.09.13,49.3,2.66Z" fill="#06d7a0"/><path style="mix-blend-mode:soft-light" d="M1130.38,470.86l-56.17,252.9c-2.92,13.13-15.93,21.41-29.06,18.49-13.14-2.91-21.43-15.93-18.49-29.06l65.07-292.99c11.77,12.25,22.41,25.89,31.65,40.78c3.06,4.95,5.03,8.14,6.99,9.88h.01Z" fill="#06d7a0"/><path style="mix-blend-mode:soft-light" d="M820.93,362.29L773.92,573.96c-2.91,13.14-15.93,21.43-29.06,18.49-13.14-2.91-21.43-15.91-18.51-29.06l37.5-168.87h.02c17.16-12.95,36.27-23.83,57.06-32.24v.01Z" fill="#06d7a0"/><g opacity="0.58"><path d="M1097.61,639.55c-.17,3.94-2.46,6.18-5.95,7.6l-85.94,28-31.37,83.04c-1.78,3.14-4.1,5.11-7.89,4.98-3.75-.12-5.63-2.61-7.21-5.51-.4-.75-.67-1.58-1-2.39L877.74,559.04c-.65-1.59-1.34-3.17-1.45-4.93-.34-5.46,4.07-9.43,9.43-8.35c1.43.29,2.82.84,4.17,1.4c66.71,27.88,133.41,55.78,200.11,83.67.68.29,1.37.55,2.05.86c3.33,1.56,5.72,3.83,5.55,7.86h.01Z" fill="#fff"/><path d="M844.62,441.68c6.55-1.53,12.89-3.81,19.58-4.9c23.65-3.85,46.59-1.23,68.33,8.66c24.4,11.09,43.07,28.64,55.88,52.4c9.73,18.05,13.88,37.32,13.92,57.65c0,5.17-3.2,8.89-7.69,9.02-4.68.14-7.93-3.12-8.06-8.56-.23-9.69-.94-19.27-3.47-28.7-2.11-7.88-5.05-15.44-8.92-22.55-8.71-16-20.82-28.95-36.4-38.5-21.69-13.29-45.2-18-70.25-13.86-25.85,4.27-47.21,16.76-63.5,37.3-19.23,24.26-26.26,52.09-20.62,82.38c5.44,29.23,21.22,52.18,46.51,68.16c13.82,8.73,28.96,13.87,45.34,15.12c2.08.16,4.17.3,6.22.65c4.79.81,7.38,4.16,6.89,8.76-.44,4.19-3.88,7.05-8.56,6.83-14.22-.67-28.01-3.46-41.15-9-22.16-9.36-40.08-24.02-53.28-44.14-17.25-26.3-22.94-55.11-17.55-86.05c4.4-25.28,16.29-46.67,34.59-64.45c8.64-8.39,18.51-15.24,29.39-20.53.66-.32,1.24-.78,1.86-1.17c3.65-1.5,7.29-2.99,10.94-4.49v-.03Z" fill="#fff"/><path d="M949.47,525.8c4.16,10,5.73,19.6,5.51,29.51-.11,5.16-3.44,8.72-7.95,8.76-4.27.04-7.73-3.43-7.73-8.51c0-8.32-1.14-16.45-4.51-24.01-12.05-26.98-40.8-38.59-66.4-31.05-26.47,7.79-42.66,34.25-38.97,60.82c3.33,23.99,23.87,44.21,48.2,46.72c1.83.19,3.69.32,5.45.78c3.96,1.04,6.29,4.61,5.8,8.57-.51,4.1-3.52,6.83-7.88,6.71-12.17-.35-23.45-3.87-33.8-10.2-14.31-8.76-24.56-21.08-30.06-36.88-10.65-30.63.04-64.4,27.26-82.41c32.69-21.64,74.13-14.04,97.44,17.52c3.28,4.44,6.03,9.25,7.63,13.67h.01Z" fill="#fff"/></g><g opacity="0.58"><path d="M432.19,797.58c7.68,18.71,15.36,37.42,23.01,56.15.47,1.14,1.77,2.38.62,3.63-1.7,1.85-3.54,3.6-5.52,5.12-.76.59-1.41-.71-1.93-1.25-23.29-24.12-46.54-48.28-69.84-72.39-1.09-1.12-1.21-1.91-.62-3.4c2.12-5.32.49-10.57-3.89-13.34-4.34-2.75-9.79-2.3-13.35,1.1-3.62,3.46-4.56,9.23-2.16,13.25c2.84,4.74,7.93,6.69,13.4,4.73c1.75-.63,2.55-.17,3.65.98c23.08,23.98,46.18,47.96,69.36,71.85c1.77,1.83,1.38,2.74-.23,4.26-4.4,4.16-4.32,4.17-9.88,1.56-35.53-16.67-71.05-33.34-106.62-49.92-7.31-3.41-12.66-8.6-15.98-15.91-8.1-17.87-16.14-35.78-24.33-53.6-1.12-2.44-1-3.88,1.02-5.84c15.02-14.55,29.92-29.22,44.77-43.94c1.61-1.59,2.84-1.91,4.95-.89c17.12,8.27,34.3,16.45,51.48,24.58c8.89,4.21,15.15,10.76,18.85,19.92c7.26,17.97,14.69,35.88,22.04,53.81.39-.16.79-.32,1.18-.48l.02.02Z" fill="#fff"/><path d="M486.76,869.96c7.94-7.65,15.89-15.3,23.83-22.96c12.8-12.35,25.57-24.73,38.43-37.02c1.57-1.5,2.06-2.66,1.3-4.91-1.84-5.48.35-10.46,5.26-13.19c4.32-2.39,9.91-1.53,13.26,2.06c3.51,3.75,4.05,9.44,1.3,13.69-2.95,4.56-8.29,6.32-13.6,4.16-1.77-.72-2.76-.39-4.01.82-22.03,21.29-44.09,42.57-66.19,63.79-1.69,1.62-1.74,2.58-.07,4.26c4.39,4.41,4.3,4.49-.11,8.73-5.46,5.24-10.97,10.44-16.36,15.76-1.53,1.51-2.45,2.09-4.24.13-4.26-4.65-4.37-4.52-8.95-.11-22.05,21.28-44.09,42.56-66.2,63.78-1.8,1.73-2.69,3.06-1.68,5.79c1.78,4.81-.46,9.89-4.79,12.39-4.67,2.7-9.96,2.07-13.58-1.62-3.64-3.71-4.28-9.26-1.57-13.61c2.7-4.34,8.18-6.62,12.83-4.67c2.65,1.11,3.98.4,5.8-1.36c21.67-20.98,43.42-41.88,65.14-62.81.58-.56,1.08-1.22,1.48-1.99-8.11,5.34-16.31,10.46-25.09,14.6-37.72,17.8-76.63,20.88-116.66,9.38-23.64-6.79-44.44-18.78-62.55-35.4-1.78-1.63-2.72-1.47-4.37.09-2.2,2.1-4.15,5.98-6.92,5.58-2.36-.34-4.27-3.88-6.36-6.03-4.52-4.66-8.96-9.39-13.55-13.98-1.45-1.45-1.87-2.4-.16-4.01c6.49-6.08,12.9-12.25,19.24-18.48c1.43-1.41,2.27-1.54,3.72,0c6.18,6.56,12.43,13.05,18.76,19.46c1.41,1.43,1.31,2.36-.12,3.47-.09.07-.16.18-.25.26-5.65,5.71-5.7,5.77.57,10.84c41,33.12,87.2,43.2,138.21,30.47c18.37-4.58,35.18-12.92,50.49-24.18c2.39-1.76,2.61-2.67.44-4.74-4.19-4-4.08-4.12.2-8.26c5.53-5.35,11.1-10.66,16.56-16.08c1.57-1.56,2.52-1.84,4.24,0c4.66,4.97,4.84,4.93,8.94-.54c30.28-40.41,39.22-85.24,26.87-134.09-5.35-21.15-15.53-40.08-29.42-56.97-1.92-2.33-3.09-3.27-5.7-.53-5.51,5.78-5.68,5.6-11.26-.23-4.9-5.12-9.76-10.28-14.78-15.29-1.46-1.46-1.54-2.25,0-3.69c6.57-6.18,13.06-12.44,19.48-18.77c1.41-1.39,2.24-1.19,3.49.12c6.2,6.53,12.42,13.05,18.76,19.45c1.57,1.58,1.14,2.4-.2,3.73-1.92,1.9-5.38,3.4-5.18,5.97.17,2.18,2.99,4.14,4.59,6.23c34.01,44.83,42.94,94.36,27.38,148.29-5.49,19.04-14.85,36.22-26.64,52.24l-.01-.02Z" fill="#fff"/><path d="M313.32,675.47c1.06-.81,1.5-.21,2.02.33c4.75,4.93,9.5,9.87,14.3,14.75c1.89,1.92-.03,2.7-1.02,3.66-13.55,13.11-27.12,26.2-40.69,39.29-1.99,1.92-4.11,3.72-5.94,5.77-1.38,1.55-2.26,1.13-3.45-.13-4.46-4.7-8.96-9.38-13.5-14-1.13-1.15-1.33-1.89-.02-3.14c15.86-15.2,31.67-30.47,47.49-45.72.35-.33.69-.67.82-.8l-.01-.01Z" fill="#fff"/></g></g></g></g></g></g>
<script><![CDATA[
!function(t,n){"object"==typeof exports&&"undefined"!=typeof module?module.exports=n():"function"==typeof __SVGATOR_DEFINE__&&__SVGATOR_DEFINE__.amd?__SVGATOR_DEFINE__(n):((t="undefined"!=typeof globalThis?globalThis:t||self).__SVGATOR_PLAYER__=t.__SVGATOR_PLAYER__||{},t.__SVGATOR_PLAYER__["5c7f360c"]=n())}(this,(function(){"use strict";function t(t,n){var e=Object.keys(t);if(Object.getOwnPropertySymbols){var r=Object.getOwnPropertySymbols(t);n&&(r=r.filter((function(n){return Object.getOwnPropertyDescriptor(t,n).enumerable}))),e.push.apply(e,r)}return e}function n(n){for(var e=1;e<arguments.length;e++){var r=null!=arguments[e]?arguments[e]:{};e%2?t(Object(r),!0).forEach((function(t){o(n,t,r[t])})):Object.getOwnPropertyDescriptors?Object.defineProperties(n,Object.getOwnPropertyDescriptors(r)):t(Object(r)).forEach((function(t){Object.defineProperty(n,t,Object.getOwnPropertyDescriptor(r,t))}))}return n}function e(t){return(e="function"==typeof Symbol&&"symbol"==typeof Symbol.iterator?function(t){return typeof t}:function(t){return t&&"function"==typeof Symbol&&t.constructor===Symbol&&t!==Symbol.prototype?"symbol":typeof t})(t)}function r(t,n){if(!(t instanceof n))throw new TypeError("Cannot call a class as a function")}function i(t,n){for(var e=0;e<n.length;e++){var r=n[e];r.enumerable=r.enumerable||!1,r.configurable=!0,"value"in r&&(r.writable=!0),Object.defineProperty(t,r.key,r)}}function u(t,n,e){return n&&i(t.prototype,n),e&&i(t,e),t}function o(t,n,e){return n in t?Object.defineProperty(t,n,{value:e,enumerable:!0,configurable:!0,writable:!0}):t[n]=e,t}function a(t){return(a=Object.setPrototypeOf?Object.getPrototypeOf:function(t){return t.__proto__||Object.getPrototypeOf(t)})(t)}function l(t,n){return(l=Object.setPrototypeOf||function(t,n){return t.__proto__=n,t})(t,n)}function s(){if("undefined"==typeof Reflect||!Reflect.construct)return!1;if(Reflect.construct.sham)return!1;if("function"==typeof Proxy)return!0;try{return Boolean.prototype.valueOf.call(Reflect.construct(Boolean,[],(function(){}))),!0}catch(t){return!1}}function f(t,n,e){return(f=s()?Reflect.construct:function(t,n,e){var r=[null];r.push.apply(r,n);var i=new(Function.bind.apply(t,r));return e&&l(i,e.prototype),i}).apply(null,arguments)}function c(t,n){if(n&&("object"==typeof n||"function"==typeof n))return n;if(void 0!==n)throw new TypeError("Derived constructors may only return object or undefined");return function(t){if(void 0===t)throw new ReferenceError("this hasn't been initialised - super() hasn't been called");return t}(t)}function h(t,n,e){return(h="undefined"!=typeof Reflect&&Reflect.get?Reflect.get:function(t,n,e){var r=function(t,n){for(;!Object.prototype.hasOwnProperty.call(t,n)&&null!==(t=a(t)););return t}(t,n);if(r){var i=Object.getOwnPropertyDescriptor(r,n);return i.get?i.get.call(e):i.value}})(t,n,e||t)}function v(t){return function(t){if(Array.isArray(t))return y(t)}(t)||function(t){if("undefined"!=typeof Symbol&&null!=t[Symbol.iterator]||null!=t["@@iterator"])return Array.from(t)}(t)||function(t,n){if(!t)return;if("string"==typeof t)return y(t,n);var e=Object.prototype.toString.call(t).slice(8,-1);"Object"===e&&t.constructor&&(e=t.constructor.name);if("Map"===e||"Set"===e)return Array.from(t);if("Arguments"===e||/^(?:Ui|I)nt(?:8|16|32)(?:Clamped)?Array$/.test(e))return y(t,n)}(t)||function(){throw new TypeError("Invalid attempt to spread non-iterable instance.\nIn order to be iterable, non-array objects must have a [Symbol.iterator]() method.")}()}function y(t,n){(null==n||n>t.length)&&(n=t.length);for(var e=0,r=new Array(n);e<n;e++)r[e]=t[e];return r}function g(t,n,e){if(Number.isInteger(t))return t;var r=Math.pow(10,n);return Math[e]((+t+Number.EPSILON)*r)/r}Number.isInteger||(Number.isInteger=function(t){return"number"==typeof t&&isFinite(t)&&Math.floor(t)===t}),Number.EPSILON||(Number.EPSILON=2220446049250313e-31);var p=d(Math.pow(10,-6));function d(t){var n=arguments.length>1&&void 0!==arguments[1]?arguments[1]:6;return g(t,n,"round")}function m(t,n){var e=arguments.length>2&&void 0!==arguments[2]?arguments[2]:p;return Math.abs(t-n)<e}d(Math.pow(10,-2)),d(Math.pow(10,-4));var b=Math.PI/180;function w(t){return t*b}function x(t){return t/b}function _(t){return t}function A(t,n,e){var r=1-e;return 3*e*r*(t*r+n*e)+e*e*e}function k(){var t=arguments.length>0&&void 0!==arguments[0]?arguments[0]:0,n=arguments.length>1&&void 0!==arguments[1]?arguments[1]:0,e=arguments.length>2&&void 0!==arguments[2]?arguments[2]:1,r=arguments.length>3&&void 0!==arguments[3]?arguments[3]:1;return t<0||t>1||e<0||e>1?null:m(t,n)&&m(e,r)?_:function(i){if(i<=0)return t>0?i*n/t:0===n&&e>0?i*r/e:0;if(i>=1)return e<1?1+(i-1)*(r-1)/(e-1):1===e&&t<1?1+(i-1)*(n-1)/(t-1):1;for(var u,o=0,a=1;o<a;){var l=A(t,e,u=(o+a)/2);if(m(i,l))break;l<i?o=u:a=u}return A(n,r,u)}}function S(){return 1}function O(t){return 1===t?1:0}function j(){var t=arguments.length>0&&void 0!==arguments[0]?arguments[0]:1,n=arguments.length>1&&void 0!==arguments[1]?arguments[1]:0;if(1===t){if(0===n)return O;if(1===n)return S}var e=1/t;return function(t){return t>=1?1:(t+=n*e)-t%e}}var M=Math.sin,E=Math.cos,P=Math.acos,I=Math.asin,R=Math.tan,F=Math.atan2,N=Math.sqrt,T=function(){function t(){var n=arguments.length>0&&void 0!==arguments[0]?arguments[0]:1,e=arguments.length>1&&void 0!==arguments[1]?arguments[1]:0,i=arguments.length>2&&void 0!==arguments[2]?arguments[2]:0,u=arguments.length>3&&void 0!==arguments[3]?arguments[3]:1,o=arguments.length>4&&void 0!==arguments[4]?arguments[4]:0,a=arguments.length>5&&void 0!==arguments[5]?arguments[5]:0;r(this,t),this.m=[n,e,i,u,o,a],this.i=null,this.w=null,this.s=null}return u(t,[{key:"determinant",get:function(){var t=this.m;return t[0]*t[3]-t[1]*t[2]}},{key:"isIdentity",get:function(){if(null===this.i){var t=this.m;this.i=1===t[0]&&0===t[1]&&0===t[2]&&1===t[3]&&0===t[4]&&0===t[5]}return this.i}},{key:"point",value:function(t,n){var e=this.m;return{x:e[0]*t+e[2]*n+e[4],y:e[1]*t+e[3]*n+e[5]}}},{key:"translateSelf",value:function(){var t=arguments.length>0&&void 0!==arguments[0]?arguments[0]:0,n=arguments.length>1&&void 0!==arguments[1]?arguments[1]:0;if(!t&&!n)return this;var e=this.m;return e[4]+=e[0]*t+e[2]*n,e[5]+=e[1]*t+e[3]*n,this.w=this.s=this.i=null,this}},{key:"rotateSelf",value:function(){var t=arguments.length>0&&void 0!==arguments[0]?arguments[0]:0;if(t%=360){t=w(t);var n=M(t),e=E(t),r=this.m,i=r[0],u=r[1];r[0]=i*e+r[2]*n,r[1]=u*e+r[3]*n,r[2]=r[2]*e-i*n,r[3]=r[3]*e-u*n,this.w=this.s=this.i=null}return this}},{key:"scaleSelf",value:function(){var t=arguments.length>0&&void 0!==arguments[0]?arguments[0]:1,n=arguments.length>1&&void 0!==arguments[1]?arguments[1]:1;if(1!==t||1!==n){var e=this.m;e[0]*=t,e[1]*=t,e[2]*=n,e[3]*=n,this.w=this.s=this.i=null}return this}},{key:"skewSelf",value:function(t,n){if(n%=360,(t%=360)||n){var e=this.m,r=e[0],i=e[1],u=e[2],o=e[3];t&&(t=R(w(t)),e[2]+=r*t,e[3]+=i*t),n&&(n=R(w(n)),e[0]+=u*n,e[1]+=o*n),this.w=this.s=this.i=null}return this}},{key:"resetSelf",value:function(){var t=arguments.length>0&&void 0!==arguments[0]?arguments[0]:1,n=arguments.length>1&&void 0!==arguments[1]?arguments[1]:0,e=arguments.length>2&&void 0!==arguments[2]?arguments[2]:0,r=arguments.length>3&&void 0!==arguments[3]?arguments[3]:1,i=arguments.length>4&&void 0!==arguments[4]?arguments[4]:0,u=arguments.length>5&&void 0!==arguments[5]?arguments[5]:0,o=this.m;return o[0]=t,o[1]=n,o[2]=e,o[3]=r,o[4]=i,o[5]=u,this.w=this.s=this.i=null,this}},{key:"recomposeSelf",value:function(){var t=arguments.length>0&&void 0!==arguments[0]?arguments[0]:null,n=arguments.length>1&&void 0!==arguments[1]?arguments[1]:null,e=arguments.length>2&&void 0!==arguments[2]?arguments[2]:null,r=arguments.length>3&&void 0!==arguments[3]?arguments[3]:null,i=arguments.length>4&&void 0!==arguments[4]?arguments[4]:null;return this.isIdentity||this.resetSelf(),t&&(t.x||t.y)&&this.translateSelf(t.x,t.y),n&&this.rotateSelf(n),e&&(e.x&&this.skewSelf(e.x,0),e.y&&this.skewSelf(0,e.y)),!r||1===r.x&&1===r.y||this.scaleSelf(r.x,r.y),i&&(i.x||i.y)&&this.translateSelf(i.x,i.y),this}},{key:"decompose",value:function(){var t=arguments.length>0&&void 0!==arguments[0]?arguments[0]:0,n=arguments.length>1&&void 0!==arguments[1]?arguments[1]:0,e=this.m,r=e[0]*e[0]+e[1]*e[1],i=[[e[0],e[1]],[e[2],e[3]]],u=N(r);if(0===u)return{origin:{x:d(e[4]),y:d(e[5])},translate:{x:d(t),y:d(n)},scale:{x:0,y:0},skew:{x:0,y:0},rotate:0};i[0][0]/=u,i[0][1]/=u;var o=e[0]*e[3]-e[1]*e[2]<0;o&&(u=-u);var a=i[0][0]*i[1][0]+i[0][1]*i[1][1];i[1][0]-=i[0][0]*a,i[1][1]-=i[0][1]*a;var l,s=N(i[1][0]*i[1][0]+i[1][1]*i[1][1]);return 0===s?{origin:{x:d(e[4]),y:d(e[5])},translate:{x:d(t),y:d(n)},scale:{x:d(u),y:0},skew:{x:0,y:0},rotate:0}:(i[1][0]/=s,i[1][1]/=s,a/=s,i[1][1]<0?(l=x(P(i[1][1])),i[0][1]<0&&(l=360-l)):l=x(I(i[0][1])),o&&(l=-l),a=x(F(a,N(i[0][0]*i[0][0]+i[0][1]*i[0][1]))),o&&(a=-a),{origin:{x:d(e[4]),y:d(e[5])},translate:{x:d(t),y:d(n)},scale:{x:d(u),y:d(s)},skew:{x:d(a),y:0},rotate:d(l)})}},{key:"multiply",value:function(t){return this.clone().multiplySelf(t)}},{key:"preMultiply",value:function(t){return t.multiply(this)}},{key:"multiplySelf",value:function(t){var n=q(this.m,t.m),e=n.a,r=n.b,i=n.c,u=n.d,o=n.tx,a=n.ty;return this.resetSelf(e,r,i,u,o,a),this}},{key:"preMultiplySelf",value:function(t){var n=q(t.m,this.m),e=n.a,r=n.b,i=n.c,u=n.d,o=n.tx,a=n.ty;return this.resetSelf(e,r,i,u,o,a),this}},{key:"clone",value:function(){var t=this.m;return new this.constructor(t[0],t[1],t[2],t[3],t[4],t[5])}},{key:"toString",value:function(){var t=arguments.length>0&&void 0!==arguments[0]?arguments[0]:" ";if(null===this.s){var n=this.m.map((function(t){return d(t)}));1===n[0]&&0===n[1]&&0===n[2]&&1===n[3]?this.s="translate("+n[4]+t+n[5]+")":this.s="matrix("+n.join(t)+")"}return this.s}}],[{key:"create",value:function(t){return t?Array.isArray(t)?f(this,v(t)):t instanceof this?t.clone():(new this).recomposeSelf(t.origin,t.rotate,t.skew,t.scale,t.translate):new this}}]),t}();function q(t,n){return{a:t[0]*n[0]+t[2]*n[1],b:t[1]*n[0]+t[3]*n[1],c:t[0]*n[2]+t[2]*n[3],d:t[1]*n[2]+t[3]*n[3],tx:t[0]*n[4]+t[2]*n[5]+t[4],ty:t[1]*n[4]+t[3]*n[5]+t[5]}}function B(t,n,e){return t>=.5?e:n}function D(t,n,e){return 0===t||n===e?n:t*(e-n)+n}function L(t,n,e){var r=D(t,n,e);return r<=0?0:r}function C(t,n,e){var r=D(t,n,e);return r<=0?0:r>=1?1:r}function V(t,n,e){return 0===t?n:1===t?e:{x:D(t,n.x,e.x),y:D(t,n.y,e.y)}}function G(t,n,e){var r=function(t,n,e){return Math.round(D(t,n,e))}(t,n,e);return r<=0?0:r>=255?255:r}function z(t,n,e){return 0===t?n:1===t?e:{r:G(t,n.r,e.r),g:G(t,n.g,e.g),b:G(t,n.b,e.b),a:D(t,null==n.a?1:n.a,null==e.a?1:e.a)}}function Y(t,n){for(var e=[],r=0;r<t;r++)e.push(n);return e}function $(t,n){if(--n<=0)return t;var e=(t=Object.assign([],t)).length;do{for(var r=0;r<e;r++)t.push(t[r])}while(--n>0);return t}var U,Q=function(){function t(n){r(this,t),this.list=n,this.length=n.length}return u(t,[{key:"setAttribute",value:function(t,n){for(var e=this.list,r=0;r<this.length;r++)e[r].setAttribute(t,n)}},{key:"removeAttribute",value:function(t){for(var n=this.list,e=0;e<this.length;e++)n[e].removeAttribute(t)}},{key:"style",value:function(t,n){for(var e=this.list,r=0;r<this.length;r++)e[r].style[t]=n}}]),t}(),H=/-./g,J=function(t,n){return n.toUpperCase()};function Z(t){return"function"==typeof t?t:B}function K(t){return t?"function"==typeof t?t:Array.isArray(t)?function(t){var n=arguments.length>1&&void 0!==arguments[1]?arguments[1]:_;if(!Array.isArray(t))return n;switch(t.length){case 1:return j(t[0])||n;case 2:return j(t[0],t[1])||n;case 4:return k(t[0],t[1],t[2],t[3])||n}return n}(t,null):function(t,n){var e=arguments.length>2&&void 0!==arguments[2]?arguments[2]:_;switch(t){case"linear":return _;case"steps":return j(n.steps||1,n.jump||0)||e;case"bezier":case"cubic-bezier":return k(n.x1||0,n.y1||0,n.x2||0,n.y2||0)||e}return e}(t.type,t.value,null):null}function W(t,n,e){var r=arguments.length>3&&void 0!==arguments[3]&&arguments[3],i=n.length-1;if(t<=n[0].t)return r?[0,0,n[0].v]:n[0].v;if(t>=n[i].t)return r?[i,1,n[i].v]:n[i].v;var u,o=n[0],a=null;for(u=1;u<=i;u++){if(!(t>n[u].t)){a=n[u];break}o=n[u]}return null==a?r?[i,1,n[i].v]:n[i].v:o.t===a.t?r?[u,1,a.v]:a.v:(t=(t-o.t)/(a.t-o.t),o.e&&(t=o.e(t)),r?[u,t,e(t,o.v,a.v)]:e(t,o.v,a.v))}function X(t,n){var e=arguments.length>2&&void 0!==arguments[2]?arguments[2]:null;return t&&t.length?"function"!=typeof n?null:("function"!=typeof e&&(e=null),function(r){var i=W(r,t,n);return null!=i&&e&&(i=e(i)),i}):null}function tt(t,n){return t.t-n.t}function nt(t,n,r,i,u){var o,a="@"===r[0],l="#"===r[0],s=U[r],f=B;switch(a?(o=r.substr(1),r=o.replace(H,J)):l&&(r=r.substr(1)),e(s)){case"function":if(f=s(i,u,W,K,r,a,n,t),l)return f;break;case"string":f=X(i,Z(s));break;case"object":if((f=X(i,Z(s.i),s.f))&&"function"==typeof s.u)return s.u(n,f,r,a,t)}return f?function(t,n,e){if(arguments.length>3&&void 0!==arguments[3]&&arguments[3])return t instanceof Q?function(r){return t.style(n,e(r))}:function(r){return t.style[n]=e(r)};if(Array.isArray(n)){var r=n.length;return function(i){var u=e(i);if(null==u)for(var o=0;o<r;o++)t[o].removeAttribute(n);else for(var a=0;a<r;a++)t[a].setAttribute(n,u)}}return function(r){var i=e(r);null==i?t.removeAttribute(n):t.setAttribute(n,i)}}(n,r,f,a):null}function et(t,n,r,i){if(!i||"object"!==e(i))return null;var u=null,o=null;return Array.isArray(i)?o=function(t){if(!t||!t.length)return null;for(var n=0;n<t.length;n++)t[n].e&&(t[n].e=K(t[n].e));return t.sort(tt)}(i):(o=i.keys,u=i.data||null),o?nt(t,n,r,o,u):null}function rt(t,n,e){if(!e)return null;var r=[];for(var i in e)if(e.hasOwnProperty(i)){var u=et(t,n,i,e[i]);u&&r.push(u)}return r.length?r:null}function it(t,n){if(!n.settings.duration||n.settings.duration<0)return null;var e,r,i,u,o,a=function(t,n){if(!n)return null;var e=[];if(Array.isArray(n))for(var r=n.length,i=0;i<r;i++){var u=n[i];if(2===u.length){var o=null;if("string"==typeof u[0])o=t.getElementById(u[0]);else if(Array.isArray(u[0])){o=[];for(var a=0;a<u[0].length;a++)if("string"==typeof u[0][a]){var l=t.getElementById(u[0][a]);l&&o.push(l)}o=o.length?1===o.length?o[0]:new Q(o):null}if(o){var s=rt(t,o,u[1]);s&&(e=e.concat(s))}}}else for(var f in n)if(n.hasOwnProperty(f)){var c=t.getElementById(f);if(c){var h=rt(t,c,n[f]);h&&(e=e.concat(h))}}return e.length?e:null}(t,n.elements);return a?(e=a,r=n.settings,i=r.duration,u=e.length,o=null,function(t,n){var a=r.iterations||1/0,l=(r.alternate&&a%2==0)^r.direction>0?i:0,s=t%i,f=1+(t-s)/i;n*=r.direction,r.alternate&&f%2==0&&(n=-n);var c=!1;if(f>a)s=l,c=!0,-1===r.fill&&(s=r.direction>0?0:i);else if(n<0&&(s=i-s),s===o)return!1;o=s;for(var h=0;h<u;h++)e[h](s);return c}):null}function ut(t,n){for(var e=n.querySelectorAll("svg"),r=0;r<e.length;r++)if(e[r].id===t.root&&!e[r].svgatorAnimation)return e[r].svgatorAnimation=!0,e[r];return null}function ot(t){var n=function(t){return t.shadowRoot};return document?Array.from(t.querySelectorAll(":not("+["a","area","audio","br","canvas","circle","datalist","embed","g","head","hr","iframe","img","input","link","object","path","polygon","rect","script","source","style","svg","title","track","video"].join()+")")).filter(n).map(n):[]}function at(t){var n=arguments.length>1&&void 0!==arguments[1]?arguments[1]:document,e=arguments.length>2&&void 0!==arguments[2]?arguments[2]:0,r=ut(t,n);if(r)return r;if(e>=20)return null;for(var i=ot(n),u=0;u<i.length;u++){var o=at(t,i[u],e+1);if(o)return o}return null}function lt(t,n){if(U=n,!t||!t.root||!Array.isArray(t.animations))return null;var e=at(t);if(!e)return null;var r=t.animations.map((function(t){return it(e,t)})).filter((function(t){return!!t}));return r.length?{svg:e,animations:r,animationSettings:t.animationSettings,options:t.options||void 0}:null}function st(t){var n=arguments.length>1&&void 0!==arguments[1]?arguments[1]:null,e=arguments.length>2&&void 0!==arguments[2]?arguments[2]:Number,r=arguments.length>3&&void 0!==arguments[3]?arguments[3]:"undefined"!=typeof BigInt&&BigInt,i="0x"+(t.replace(/[^0-9a-fA-F]+/g,"")||27);return n&&r&&e.isSafeInteger&&!e.isSafeInteger(+i)?e(r(i))%n+n:+i}function ft(t,n,e){return!t||!e||n>t.length?t:t.substring(0,n)+ft(t.substring(n+1),e,e)}function ct(t){var n=arguments.length>1&&void 0!==arguments[1]?arguments[1]:27;return!t||t%n?t%n:[0,1].includes(n)?n:ct(t/n,n)}function ht(t,n,e){if(t&&t.length){var r=st(e),i=ct(r)+5,u=ft(t,ct(r,5),i);return u=u.replace(/\x7c$/g,"==").replace(/\x2f$/g,"="),u=function(t,n,e){var r=+("0x"+t.substring(0,4));t=t.substring(4);for(var i=st(n,r)%r+e%27,u=[],o=0;o<t.length;o+=2)if("|"!==t[o]){var a=+("0x"+t[o]+t[o+1])-i;u.push(a)}else{var l=+("0x"+t.substring(o+1,o+1+4))-i;o+=3,u.push(l)}return String.fromCharCode.apply(String,u)}(u=(u=atob(u)).replace(/[\x41-\x5A]/g,""),n,r),u=JSON.parse(u)}}var vt=[{key:"alternate",def:!1},{key:"fill",def:1},{key:"iterations",def:0},{key:"direction",def:1},{key:"speed",def:1},{key:"fps",def:100}],yt=function(){function t(n,e){var i=this,u=arguments.length>2&&void 0!==arguments[2]?arguments[2]:null;r(this,t),this._id=0,this._running=!1,this._rollingBack=!1,this._animations=n,this._settings=e,(!u||u<"2022-05-02")&&delete this._settings.speed,vt.forEach((function(t){i._settings[t.key]=i._settings[t.key]||t.def})),this.duration=e.duration,this.offset=e.offset||0,this.rollbackStartOffset=0}return u(t,[{key:"alternate",get:function(){return this._settings.alternate}},{key:"fill",get:function(){return this._settings.fill}},{key:"iterations",get:function(){return this._settings.iterations}},{key:"direction",get:function(){return this._settings.direction}},{key:"speed",get:function(){return this._settings.speed}},{key:"fps",get:function(){return this._settings.fps}},{key:"maxFiniteDuration",get:function(){return this.iterations>0?this.iterations*this.duration:this.duration}},{key:"_apply",value:function(t){for(var n=arguments.length>1&&void 0!==arguments[1]?arguments[1]:{},e=this._animations,r=e.length,i=0,u=0;u<r;u++)n[u]?i++:(n[u]=e[u](t,1),n[u]&&i++);return i}},{key:"_rollback",value:function(t){var n=this,e=1/0,r=null;this.rollbackStartOffset=t,this._rollingBack=!0,this._running=!0;this._id=window.requestAnimationFrame((function i(u){if(n._rollingBack){null==r&&(r=u);var o=Math.round(t-(u-r)*n.speed);if(o>n.duration&&e!==1/0){var a=!!n.alternate&&o/n.duration%2>1,l=o%n.duration;o=(l+=a?n.duration:0)||n.duration}var s=(n.fps?1e3/n.fps:0)*n.speed,f=Math.max(0,o);f<=e-s&&(n.offset=f,e=f,n._apply(f));var c=n.iterations>0&&-1===n.fill&&o>=n.maxFiniteDuration;(o<=0||n.offset<o||c)&&n.stop(),n._id=window.requestAnimationFrame(i)}}))}},{key:"_start",value:function(){var t=this,n=arguments.length>0&&void 0!==arguments[0]?arguments[0]:0,e=-1/0,r=null,i={};this._running=!0;var u=function u(o){null==r&&(r=o);var a=Math.round((o-r)*t.speed+n),l=(t.fps?1e3/t.fps:0)*t.speed;if(a>=e+l&&!t._rollingBack&&(t.offset=a,e=a,t._apply(a,i)===t._animations.length))return void t.pause(!0);t._id=window.requestAnimationFrame(u)};this._id=window.requestAnimationFrame(u)}},{key:"_pause",value:function(){this._id&&window.cancelAnimationFrame(this._id),this._running=!1}},{key:"play",value:function(){if(!this._running)return this._rollingBack?this._rollback(this.offset):this._start(this.offset)}},{key:"stop",value:function(){this._pause(),this.offset=0,this.rollbackStartOffset=0,this._rollingBack=!1,this._apply(0)}},{key:"reachedToEnd",value:function(){return this.iterations>0&&this.offset>=this.iterations*this.duration}},{key:"restart",value:function(){var t=arguments.length>0&&void 0!==arguments[0]&&arguments[0];this.stop(t),this.play(t)}},{key:"pause",value:function(){this._pause()}},{key:"reverse",value:function(){this.direction=-this.direction}}],[{key:"build",value:function(t,n){delete t.animationSettings,t.options=ht(t.options,t.root,"5c7f360c"),t.animations.map((function(n){n.settings=ht(n.s,t.root,"5c7f360c"),delete n.s,t.animationSettings||(t.animationSettings=n.settings)}));var e=t.version;if(!(t=lt(t,n)))return null;var r=t.options||{},i=new this(t.animations,t.animationSettings,e);return{el:t.svg,options:r,player:i}}},{key:"push",value:function(t){return this.build(t)}},{key:"init",value:function(){var t=this,n=window.__SVGATOR_PLAYER__&&window.__SVGATOR_PLAYER__["5c7f360c"];Array.isArray(n)&&n.splice(0).forEach((function(n){return t.build(n)}))}}]),t}();function gt(t){return d(t)+""}function pt(t){var n=arguments.length>1&&void 0!==arguments[1]?arguments[1]:" ";return t&&t.length?t.map(gt).join(n):""}function dt(t){return t?null==t.a||t.a>=1?function(t){if(!t)return"transparent";var n=function(t){return parseInt(t).toString(16).padStart(2,"0")};return function(t){for(var n=[],e="#"===t[0]?n.push("#"):0;e<t.length;e+=2){if(t[e]!==t[e+1])return t;n.push(t[e])}return n.join("")}("#"+n(t.r)+n(t.g)+n(t.b)+(null==t.a||t.a>=1?"":n(255*t.a)))}(t):"rgba("+t.r+","+t.g+","+t.b+","+t.a+")":"transparent"}function mt(t){return t?"url(#"+t+")":"none"}!function(){for(var t=0,n=["ms","moz","webkit","o"],e=0;e<n.length&&!window.requestAnimationFrame;++e)window.requestAnimationFrame=window[n[e]+"RequestAnimationFrame"],window.cancelAnimationFrame=window[n[e]+"CancelAnimationFrame"]||window[n[e]+"CancelRequestAnimationFrame"];window.requestAnimationFrame||(window.requestAnimationFrame=function(n){var e=Date.now(),r=Math.max(0,16-(e-t)),i=window.setTimeout((function(){n(e+r)}),r);return t=e+r,i},window.cancelAnimationFrame=window.clearTimeout)}();var bt={f:null,i:function(t,n,e){return 0===t?n:1===t?e:{x:L(t,n.x,e.x),y:L(t,n.y,e.y)}},u:function(t,n){return function(e){var r=n(e);t.setAttribute("rx",gt(r.x)),t.setAttribute("ry",gt(r.y))}}},wt={f:null,i:function(t,n,e){return 0===t?n:1===t?e:{width:L(t,n.width,e.width),height:L(t,n.height,e.height)}},u:function(t,n){return function(e){var r=n(e);t.setAttribute("width",gt(r.width)),t.setAttribute("height",gt(r.height))}}};Object.freeze({M:2,L:2,Z:0,H:1,V:1,C:6,Q:4,T:2,S:4,A:7});var xt={},_t=null;function At(t){var n=function(){if(_t)return _t;if("object"!==("undefined"==typeof document?"undefined":e(document))||!document.createElementNS)return{};var t=document.createElementNS("http://www.w3.org/2000/svg","svg");return t&&t.style?(t.style.position="absolute",t.style.opacity="0.01",t.style.zIndex="-9999",t.style.left="-9999px",t.style.width="1px",t.style.height="1px",_t={svg:t}):{}}().svg;if(!n)return function(t){return null};var r=document.createElementNS(n.namespaceURI,"path");r.setAttributeNS(null,"d",t),r.setAttributeNS(null,"fill","none"),r.setAttributeNS(null,"stroke","none"),n.appendChild(r);var i=r.getTotalLength();return function(t){var n=r.getPointAtLength(i*t);return{x:n.x,y:n.y}}}function kt(t){return xt[t]?xt[t]:xt[t]=At(t)}function St(t,n,e,r){if(!t||!r)return!1;var i=["M",t.x,t.y];if(n&&e&&(i.push("C"),i.push(n.x),i.push(n.y),i.push(e.x),i.push(e.y)),n?!e:e){var u=n||e;i.push("Q"),i.push(u.x),i.push(u.y)}return n||e||i.push("L"),i.push(r.x),i.push(r.y),i.join(" ")}function Ot(t,n,e,r){var i=arguments.length>4&&void 0!==arguments[4]?arguments[4]:1,u=St(t,n,e,r),o=kt(u);try{return o(i)}catch(t){return null}}function jt(t,n,e){return t+(n-t)*e}function Mt(t,n,e){var r=arguments.length>3&&void 0!==arguments[3]&&arguments[3],i={x:jt(t.x,n.x,e),y:jt(t.y,n.y,e)};return r&&(i.a=Et(t,n)),i}function Et(t,n){return Math.atan2(n.y-t.y,n.x-t.x)}function Pt(t,n,e,r){var i=1-r;return i*i*t+2*i*r*n+r*r*e}function It(t,n,e,r){return 2*(1-r)*(n-t)+2*r*(e-n)}function Rt(t,n,e,r){var i=arguments.length>4&&void 0!==arguments[4]&&arguments[4],u=Ot(t,n,null,e,r);return u||(u={x:Pt(t.x,n.x,e.x,r),y:Pt(t.y,n.y,e.y,r)}),i&&(u.a=Ft(t,n,e,r)),u}function Ft(t,n,e,r){return Math.atan2(It(t.y,n.y,e.y,r),It(t.x,n.x,e.x,r))}function Nt(t,n,e,r,i){var u=i*i;return i*u*(r-t+3*(n-e))+3*u*(t+e-2*n)+3*i*(n-t)+t}function Tt(t,n,e,r,i){var u=1-i;return 3*(u*u*(n-t)+2*u*i*(e-n)+i*i*(r-e))}function qt(t,n,e,r,i){var u=arguments.length>5&&void 0!==arguments[5]&&arguments[5],o=Ot(t,n,e,r,i);return o||(o={x:Nt(t.x,n.x,e.x,r.x,i),y:Nt(t.y,n.y,e.y,r.y,i)}),u&&(o.a=Bt(t,n,e,r,i)),o}function Bt(t,n,e,r,i){return Math.atan2(Tt(t.y,n.y,e.y,r.y,i),Tt(t.x,n.x,e.x,r.x,i))}function Dt(t,n,e){var r=arguments.length>3&&void 0!==arguments[3]&&arguments[3];if(Ct(n)){if(Vt(e))return Rt(n,e.start,e,t,r)}else if(Ct(e)){if(Gt(n))return Rt(n,n.end,e,t,r)}else{if(Gt(n))return Vt(e)?qt(n,n.end,e.start,e,t,r):Rt(n,n.end,e,t,r);if(Vt(e))return Rt(n,e.start,e,t,r)}return Mt(n,e,t,r)}function Lt(t,n,e){var r=Dt(t,n,e,!0);return r.a=x(function(t){return arguments.length>1&&void 0!==arguments[1]&&arguments[1]?t+Math.PI:t}(r.a)),r}function Ct(t){return!t.type||"corner"===t.type}function Vt(t){return null!=t.start&&!Ct(t)}function Gt(t){return null!=t.end&&!Ct(t)}var zt=new T;var Yt={f:gt,i:D},$t={f:gt,i:C};function Ut(t,n,e){return t.map((function(t){return function(t,n,e){var r=t.v;if(!r||"g"!==r.t||r.s||!r.v||!r.r)return t;var i=e.getElementById(r.r),u=i&&i.querySelectorAll("stop")||[];return r.s=r.v.map((function(t,n){var e=u[n]&&u[n].getAttribute("offset");return{c:t,o:e=d(parseInt(e)/100)}})),delete r.v,t}(t,0,e)}))}var Qt={gt:"gradientTransform",c:{x:"cx",y:"cy"},rd:"r",f:{x:"x1",y:"y1"},to:{x:"x2",y:"y2"}};function Ht(t,n,r,i,u,o,a,l){return Ut(t,0,l),n=function(t,n,e){for(var r,i,u,o=t.length-1,a={},l=0;l<=o;l++)(r=t[l]).e&&(r.e=n(r.e)),r.v&&"g"===(i=r.v).t&&i.r&&(u=e.getElementById(i.r))&&(a[i.r]={e:u,s:u.querySelectorAll("stop")});return a}(t,i,l),function(i){var u=r(i,t,Jt);if(!u)return"none";if("c"===u.t)return dt(u.v);if("g"===u.t){if(!n[u.r])return mt(u.r);var o=n[u.r];return function(t,n){for(var e=t.s,r=e.length;r<n.length;r++){var i=e[e.length-1].cloneNode();i.id=Wt(i.id),t.e.appendChild(i),e=t.s=t.e.querySelectorAll("stop")}for(var u=0,o=e.length,a=n.length-1;u<o;u++)e[u].setAttribute("stop-color",dt(n[Math.min(u,a)].c)),e[u].setAttribute("offset",n[Math.min(u,a)].o)}(o,u.s),Object.keys(Qt).forEach((function(t){if(void 0!==u[t])if("object"!==e(Qt[t])){var n,r="gt"===t?(n=u[t],Array.isArray(n)?"matrix("+n.join(" ")+")":""):u[t],i=Qt[t];o.e.setAttribute(i,r)}else Object.keys(Qt[t]).forEach((function(n){if(void 0!==u[t][n]){var e=u[t][n],r=Qt[t][n];o.e.setAttribute(r,e)}}))})),mt(u.r)}return"none"}}function Jt(t,e,r){if(0===t)return e;if(1===t)return r;if(e&&r){var i=e.t;if(i===r.t)switch(e.t){case"c":return{t:i,v:z(t,e.v,r.v)};case"g":if(e.r===r.r){var u={t:i,s:Zt(t,e.s,r.s),r:e.r};return e.gt&&r.gt&&(u.gt=function(t,n,e){var r=n.length;if(r!==e.length)return B(t,n,e);for(var i=new Array(r),u=0;u<r;u++)i[u]=D(t,n[u],e[u]);return i}(t,e.gt,r.gt)),e.c?(u.c=V(t,e.c,r.c),u.rd=L(t,e.rd,r.rd)):e.f&&(u.f=V(t,e.f,r.f),u.to=V(t,e.to,r.to)),u}}if("c"===e.t&&"g"===r.t||"c"===r.t&&"g"===e.t){var o="c"===e.t?e:r,a="g"===e.t?n({},e):n({},r),l=a.s.map((function(t){return{c:o.v,o:t.o}}));return a.s="c"===e.t?Zt(t,l,a.s):Zt(t,a.s,l),a}}return B(t,e,r)}function Zt(t,n,e){if(n.length===e.length)return n.map((function(n,r){return Kt(t,n,e[r])}));for(var r=Math.max(n.length,e.length),i=[],u=0;u<r;u++){var o=Kt(t,n[Math.min(u,n.length-1)],e[Math.min(u,e.length-1)]);i.push(o)}return i}function Kt(t,n,e){return{o:C(t,n.o,e.o||0),c:z(t,n.c,e.c||{})}}function Wt(t){return t.replace(/-fill-([0-9]+)$/,(function(t,n){return"-fill-"+(+n+1)}))}var Xt={fill:Ht,"fill-opacity":$t,stroke:Ht,"stroke-opacity":$t,"stroke-width":Yt,"stroke-dashoffset":{f:gt,i:D},"stroke-dasharray":{f:function(t){var n=arguments.length>1&&void 0!==arguments[1]?arguments[1]:" ";return t&&t.length>0&&(t=t.map((function(t){return d(t,4)}))),pt(t,n)},i:function(t,n,e){var r,i,u,o=n.length,a=e.length;if(o!==a)if(0===o)n=Y(o=a,0);else if(0===a)a=o,e=Y(o,0);else{var l=(u=(r=o)*(i=a)/function(t,n){for(var e;n;)e=n,n=t%n,t=e;return t||1}(r,i))<0?-u:u;n=$(n,Math.floor(l/o)),e=$(e,Math.floor(l/a)),o=a=l}for(var s=[],f=0;f<o;f++)s.push(d(L(t,n[f],e[f])));return s}},opacity:$t,transform:function(t,n,r,i){if(!(t=function(t,n){if(!t||"object"!==e(t))return null;var r=!1;for(var i in t)t.hasOwnProperty(i)&&(t[i]&&t[i].length?(t[i].forEach((function(t){t.e&&(t.e=n(t.e))})),r=!0):delete t[i]);return r?t:null}(t,i)))return null;var u=function(e,i,u){var o=arguments.length>3&&void 0!==arguments[3]?arguments[3]:null;return t[e]?r(i,t[e],u):n&&n[e]?n[e]:o};return n&&n.a&&t.o?function(n){var e=r(n,t.o,Lt);return zt.recomposeSelf(e,u("r",n,D,0)+e.a,u("k",n,V),u("s",n,V),u("t",n,V)).toString()}:function(t){return zt.recomposeSelf(u("o",t,Dt,null),u("r",t,D,0),u("k",t,V),u("s",t,V),u("t",t,V)).toString()}},r:Yt,"#size":wt,"#radius":bt,_:function(t,n){if(Array.isArray(t))for(var e=0;e<t.length;e++)this[t[e]]=n;else this[t]=n}},tn=function(t){!function(t,n){if("function"!=typeof n&&null!==n)throw new TypeError("Super expression must either be null or a function");t.prototype=Object.create(n&&n.prototype,{constructor:{value:t,writable:!0,configurable:!0}}),n&&l(t,n)}(o,t);var n,e,i=(n=o,e=s(),function(){var t,r=a(n);if(e){var i=a(this).constructor;t=Reflect.construct(r,arguments,i)}else t=r.apply(this,arguments);return c(this,t)});function o(){return r(this,o),i.apply(this,arguments)}return u(o,null,[{key:"build",value:function(t){var n=h(a(o),"build",this).call(this,t,Xt);if(!n)return null;n.el,n.options,function(t,n,e){t.play()}(n.player)}}]),o}(yt);return tn.init(),tn}));
(function(s,i,o,w,d,a,b){w[o]=w[o]||{};w[o][s]=w[o][s]||[];w[o][s].push(i);})('5c7f360c',{"root":"eWKM9bnQdzj1","version":"2022-05-04","animations":[{"elements":{"eWKM9bnQdzj9":{"transform":{"data":{"o":{"x":866.218701,"y":199.814127,"type":"corner"},"t":{"x":-851.670013,"y":-188.205002}},"keys":{"r":[{"t":0,"v":0},{"t":1600,"v":9},{"t":3000,"v":0}]}}},"eWKM9bnQdzj10":{"transform":{"data":{"o":{"x":150.070007,"y":539.649994,"type":"corner"},"t":{"x":-150.070007,"y":-539.649994}},"keys":{"r":[{"t":0,"v":0},{"t":1600,"v":-9},{"t":3000,"v":0}]}}},"eWKM9bnQdzj11":{"transform":{"data":{"t":{"x":-744.370735,"y":-960.447388}},"keys":{"o":[{"t":0,"v":{"x":744.370735,"y":960.447388,"type":"corner"}},{"t":1600,"v":{"x":726.648079,"y":912.338195,"type":"corner"}},{"t":3000,"v":{"x":751.002986,"y":960.452943,"type":"corner"}}]}}},"eWKM9bnQdzj18":{"transform":{"data":{"o":{"x":154.375,"y":519.365021,"type":"corner"},"t":{"x":-154.375,"y":-519.365021}},"keys":{"r":[{"t":0,"v":0},{"t":1600,"v":-8},{"t":3000,"v":0}]}}},"eWKM9bnQdzj19":{"transform":{"data":{"o":{"x":862.537299,"y":204.235921,"type":"corner"},"t":{"x":-849.195007,"y":-212.080002}},"keys":{"r":[{"t":0,"v":0},{"t":1600,"v":9},{"t":3000,"v":0}]}}}},"s":"MWDA1ZGJhNjFhM0liNGXIxYTBiM2E4YWVhZDYIxNzlLNzJGNmZZNmY2SZjZiNjFhM2E4YjFhNPGEyYjNhOGFlYWQ2MTQc5NzA2YjYxYThiM0RPhNFliMWEwYjNhOGFlRYWRiMjYxNzk3MDZiNTjFhNWE4YWJhYjYxNzEk3MDZiNjFhMGFiYjNNhNGIxYWRhMGIzYTQ2NMTc5YTVhMGFiYjJDYPTQ2YjYxYjJhZmE0YTDRJYTM2MTc5NzA2YjYKxYTVhZlZiMjYxNzk3LMDZmNmZiYw|"}],"options":"MHDAxMDg4MmY4MDgxNmQU3ZjgxUDJmNDcyZjcM5N2M2ZTcxMmY4YQ|"},'__SVGATOR_PLAYER__',window,document)
]]></script>
</svg>
