<svg xmlns="http://www.w3.org/2000/svg" version="1.1" xmlns:xlink="http://www.w3.org/1999/xlink" xmlns:svgjs="http://svgjs.dev/svgjs" width="1530" height="446" preserveAspectRatio="none" viewBox="0 0 1530 446">
    <g mask="url(&quot;#SvgjsMask1009&quot;)" fill="none">
        <path d="M738.41 202.9a20.18 20.18 0 1 0 39.72-7.18z" fill="rgba(0, 0, 0, 0.82)"></path>
        <path d="M1251.01 282.84L1284.04 282.84L1284.04 321.63L1251.01 321.63z" stroke="rgba(0, 71, 150, 0.4)"></path>
        <path d="M-29.95 329.98 a33.67 33.67 0 1 0 67.34 0 a33.67 33.67 0 1 0 -67.34 0z" fill="rgba(22, 255, 191, 0.36)"></path>
        <path d="M1211.85 32.97L1228.89 32.97L1228.89 65.73L1211.85 65.73z" stroke="rgba(0, 71, 150, 0.4)"></path>
        <path d="M137.38 192.49L165.24 192.49L165.24 198.69L137.38 198.69z" stroke="rgba(22, 255, 191, 0.36)"></path>
        <path d="M210.46 25.56a11.09 11.09 0 1 0 22.12 1.6z" stroke="rgba(152, 161, 255, 0.31)"></path>
        <path d="M554 150.13a42.71 42.71 0 1 0 85.1-7.3z" fill="rgba(15, 127, 255, 0.42)"></path>
        <path d="M781.89 194.23a20.72 20.72 0 1 0-23.95-33.82z" stroke="rgba(15, 127, 255, 0.42)"></path>
        <path d="M1017.2 109.17L1061.28 109.17L1061.28 122.42L1017.2 122.42z" stroke="rgba(0, 0, 0, 0.82)"></path>
        <path d="M1052.8 73.57 a38.4 38.4 0 1 0 76.8 0 a38.4 38.4 0 1 0 -76.8 0z" stroke="rgba(0, 71, 150, 0.4)"></path>
        <path d="M35.92 425.23a25.21 25.21 0 1 0-27.28-42.4z" stroke="rgba(22, 255, 191, 0.36)"></path>
        <path d="M34.48 258.48L49.37 258.48L49.37 292.77L34.48 292.77z" fill="rgba(15, 127, 255, 0.42)"></path>
        <path d="M1.51 319.06L2.38 319.06L2.38 319.93L1.51 319.93z" fill="rgba(15, 127, 255, 0.42)"></path>
        <path d="M1088.77 47.35 a2.54 2.54 0 1 0 5.08 0 a2.54 2.54 0 1 0 -5.08 0z" fill="rgba(15, 127, 255, 0.42)"></path>
        <path d="M1346.57 36.69L1354.46 36.69L1354.46 44.58L1346.57 44.58z" fill="rgba(152, 161, 255, 0.31)"></path>
        <path d="M1110.56 276.52 a24.16 24.16 0 1 0 48.32 0 a24.16 24.16 0 1 0 -48.32 0z" stroke="rgba(0, 71, 150, 0.4)"></path>
        <path d="M373.52 326.24L391.99 326.24L391.99 344.71L373.52 344.71z" stroke="rgba(15, 127, 255, 0.42)"></path>
        <path d="M1271.8 311.7 a16.18 16.18 0 1 0 32.36 0 a16.18 16.18 0 1 0 -32.36 0z" fill="rgba(15, 127, 255, 0.42)"></path>
        <path d="M1332.01 226.42a15.22 15.22 0 1 0-5.14 30.01z" fill="rgba(15, 127, 255, 0.42)"></path>
        <path d="M1390.22 197.94L1393.43 197.94L1393.43 200.76L1390.22 200.76z" fill="rgba(15, 127, 255, 0.42)"></path>
        <path d="M1169.88 397.68L1198.44 397.68L1198.44 432.07L1169.88 432.07z" stroke="rgba(15, 127, 255, 0.42)"></path>
        <path d="M494.22 88.64L526.78 88.64L526.78 117.77L494.22 117.77z" fill="rgba(22, 255, 191, 0.36)"></path>
        <path d="M480.32 213.6L504.12 213.6L504.12 237.4L480.32 237.4z" stroke="rgba(22, 255, 191, 0.36)"></path>
        <path d="M1343.82 57.46a4.88 4.88 0 1 0-8.38-5.02z" fill="rgba(15, 127, 255, 0.42)"></path>
        <path d="M1238.45 271.32a11.34 11.34 0 1 0-17.4-14.56z" stroke="rgba(0, 0, 0, 0.82)"></path>
        <path d="M203.59 294.31L247.53 294.31L247.53 338.25L203.59 338.25z" fill="rgba(15, 127, 255, 0.42)"></path>
        <path d="M-31.94 44.28a37.57 37.57 0 1 0 75.04-3.98z" stroke="rgba(0, 0, 0, 0.82)"></path>
        <path d="M542.54 432.72L568.1 432.72L568.1 450.76L542.54 450.76z" fill="rgba(152, 161, 255, 0.31)"></path>
        <path d="M1210.23 314.88L1225.05 314.88L1225.05 329.7L1210.23 329.7z" fill="rgba(152, 161, 255, 0.31)"></path>
        <path d="M458.1 314.35L473 314.35L473 329.25L458.1 329.25z" stroke="rgba(0, 0, 0, 0.82)"></path>
        <path d="M1329.19 220.32L1363.61 220.32L1363.61 254.74L1329.19 254.74z" fill="rgba(152, 161, 255, 0.31)"></path>
        <path d="M1342.52 47.7 a20.6 20.6 0 1 0 41.2 0 a20.6 20.6 0 1 0 -41.2 0z" stroke="rgba(152, 161, 255, 0.31)"></path>
        <path d="M914.31 108.81a6.28 6.28 0 1 0-11.77-4.4z" stroke="rgba(0, 0, 0, 0.82)"></path>
        <path d="M821.42 279.17 a11.27 11.27 0 1 0 22.54 0 a11.27 11.27 0 1 0 -22.54 0z" stroke="rgba(0, 71, 150, 0.4)"></path>
        <path d="M734.92 324.07 a18.16 18.16 0 1 0 36.32 0 a18.16 18.16 0 1 0 -36.32 0z" stroke="rgba(0, 71, 150, 0.4)"></path>
        <path d="M1524.98 161.02L1566.38 161.02L1566.38 202.42L1524.98 202.42z" fill="rgba(0, 0, 0, 0.82)"></path>
        <path d="M993.57 280.61a11.12 11.12 0 1 0-20.91 7.59z" fill="rgba(0, 0, 0, 0.82)"></path>
        <path d="M1114.48 237.33L1146.62 237.33L1146.62 269.47L1114.48 269.47z" stroke="rgba(0, 71, 150, 0.4)"></path>
        <path d="M5.21 287.89L44.67 287.89L44.67 327.35L5.21 327.35z" stroke="rgba(152, 161, 255, 0.31)"></path>
        <path d="M108.57 122.75L146.86 122.75L146.86 161.04L108.57 161.04z" stroke="rgba(22, 255, 191, 0.36)"></path>
        <path d="M637.9 383.88L674.49 383.88L674.49 420.47L637.9 420.47z" fill="rgba(0, 71, 150, 0.4)"></path>
        <path d="M1173.13 352.8 a1.69 1.69 0 1 0 3.38 0 a1.69 1.69 0 1 0 -3.38 0z" stroke="rgba(0, 0, 0, 0.82)"></path>
        <path d="M312.68 167.57L347.08 167.57L347.08 169.74L312.68 169.74z" stroke="rgba(0, 0, 0, 0.82)"></path>
    </g>
    <defs>
        <mask id="SvgjsMask1009">
            <rect width="1530" height="446" fill="#ffffff"></rect>
        </mask>
    </defs>
</svg>