<svg xmlns="http://www.w3.org/2000/svg" version="1.1" xmlns:xlink="http://www.w3.org/1999/xlink" xmlns:svgjs="http://svgjs.dev/svgjs" width="957" height="369" preserveAspectRatio="none" viewBox="0 0 957 369">
    <g mask="url(&quot;#SvgjsMask1219&quot;)" fill="none">
        <rect width="957" height="369" x="0" y="0" fill="rgba(255, 255, 255, 0)"></rect>
        <path d="M0,204.301C42.404,204.596,85.274,210.124,124.141,193.168C166.917,174.506,213.051,148.421,228.795,104.487C244.415,60.896,212.086,16.258,203.865,-29.311C196.016,-72.819,209.887,-123.38,181.565,-157.327C153.19,-191.338,99.834,-184.26,59.438,-202.427C10.381,-224.489,-28.098,-285.87,-80.847,-275.341C-132.635,-265.004,-147.193,-197.231,-178.746,-154.884C-207.635,-116.112,-253.688,-85.27,-258.329,-37.142C-262.938,10.654,-227.062,51.204,-202.605,92.527C-180.606,129.697,-160.855,170.584,-123.036,191.448C-86.184,211.779,-42.087,204.008,0,204.301" fill="#001D3F"></path>
        <path d="M957 676.711C1012.842 667.153 1041.381 603.943 1093.038 580.679 1158.489 551.203 1254.133 582.059 1296.247 523.929 1336.5720000000001 468.267 1290.7060000000001 390.456 1280.042 322.554 1269.533 255.638 1281.482 177.307 1234.193 128.811 1187.071 80.48700000000002 1109.595 83.11399999999998 1042.244 78.68599999999998 986.293 75.007 934.753 95.231 879.629 105.5 817.0409999999999 117.15899999999999 746.749 104.257 696.325 143.124 642.951 184.265 598.683 250.997 603.6859999999999 318.201 608.669 385.139 687.336 418.727 721.16 476.705 750.259 526.5840000000001 743.296 595.6510000000001 787.337 633 832.798 671.554 898.246 686.767 957 676.711" fill="#001D3F"></path>
    </g>
    <defs>
        <mask id="SvgjsMask1219">
            <rect width="957" height="369" fill="#ffffff"></rect>
        </mask>
    </defs>
</svg>