<svg xmlns="http://www.w3.org/2000/svg" version="1.1" xmlns:xlink="http://www.w3.org/1999/xlink" xmlns:svgjs="http://svgjs.dev/svgjs" width="1440" height="560" preserveAspectRatio="none" viewBox="0 0 1440 560">
    <g mask="url(&quot;#SvgjsMask1493&quot;)" fill="none">
        <path d="M801.51 231.36 L862.59 371.99L892.3284039261927 241.3965960738073z" stroke="rgba(6, 215, 160, 1)" stroke-width="1.98" stroke-dasharray="3, 3"></path>
        <rect width="128" height="128" clip-path="url(&quot;#SvgjsClipPath1494&quot;)" x="19.35" y="-22.88" fill="url(&quot;#SvgjsPattern1495&quot;)" transform="rotate(273.19, 83.35, 41.12)"></rect>
        <path d="M615.57 54.06a5.6 5.6 0 1 0-10.92 2.5 5.6 5.6 0 1 0 10.92-2.5zM599.98 57.63a5.6 5.6 0 1 0-10.92 2.49 5.6 5.6 0 1 0 10.92-2.49zM584.38 61.19a5.6 5.6 0 1 0-10.92 2.5 5.6 5.6 0 1 0 10.92-2.5zM568.78 64.76a5.6 5.6 0 1 0-10.92 2.5 5.6 5.6 0 1 0 10.92-2.5zM643.2 31.33a5.6 5.6 0 1 0-10.92 2.5 5.6 5.6 0 1 0 10.92-2.5zM627.6 34.9a5.6 5.6 0 1 0-10.91 2.49 5.6 5.6 0 1 0 10.91-2.49zM612.01 38.46a5.6 5.6 0 1 0-10.92 2.5 5.6 5.6 0 1 0 10.92-2.5zM596.41 42.03a5.6 5.6 0 1 0-10.92 2.5 5.6 5.6 0 1 0 10.92-2.5zM670.83 8.6a5.6 5.6 0 1 0-10.92 2.5 5.6 5.6 0 1 0 10.92-2.5zM655.23 12.17a5.6 5.6 0 1 0-10.92 2.49 5.6 5.6 0 1 0 10.92-2.49zM639.63 15.73a5.6 5.6 0 1 0-10.91 2.5 5.6 5.6 0 1 0 10.91-2.5zM624.04 19.3a5.6 5.6 0 1 0-10.92 2.5 5.6 5.6 0 1 0 10.92-2.5z" fill="#e73635"></path>
        <circle r="46.666666666666664" cx="1268.25" cy="136.26" stroke="#e73635" stroke-width="1" stroke-dasharray="3, 2"></circle>
        <path d="M316.48 256.92 L319.02 137.32L253.24733229999444 132.61733229999444z" fill="rgba(6, 215, 160, 1)"></path>
        <path d="M1361.76 29.28L1349.97 34.28 1342.5 23.88 1330.71 28.88 1323.24 18.48 1311.45 23.48 1303.98 13.08" stroke="rgba(6, 215, 160, 1)" stroke-width="1.45" stroke-dasharray="4, 4"></path>
        <path d="M1367.91 77.95a5.6 5.6 0 1 0-1.95 11.03 5.6 5.6 0 1 0 1.95-11.03zM1365.12 93.71a5.6 5.6 0 1 0-1.94 11.03 5.6 5.6 0 1 0 1.94-11.03zM1362.34 109.46a5.6 5.6 0 1 0-1.95 11.03 5.6 5.6 0 1 0 1.95-11.03zM1359.56 125.22a5.6 5.6 0 1 0-1.95 11.03 5.6 5.6 0 1 0 1.95-11.03zM1357.72 43.66a5.6 5.6 0 1 0-1.95 11.02 5.6 5.6 0 1 0 1.95-11.02zM1354.94 59.41a5.6 5.6 0 1 0-1.95 11.03 5.6 5.6 0 1 0 1.95-11.03zM1352.15 75.17a5.6 5.6 0 1 0-1.95 11.03 5.6 5.6 0 1 0 1.95-11.03zM1349.37 90.92a5.6 5.6 0 1 0-1.95 11.03 5.6 5.6 0 1 0 1.95-11.03zM1347.53 9.36a5.6 5.6 0 1 0-1.95 11.03 5.6 5.6 0 1 0 1.95-11.03zM1344.75 25.12a5.6 5.6 0 1 0-1.95 11.02 5.6 5.6 0 1 0 1.95-11.02zM1341.96 40.87a5.6 5.6 0 1 0-1.94 11.03 5.6 5.6 0 1 0 1.94-11.03zM1339.18 56.63a5.6 5.6 0 1 0-1.95 11.03 5.6 5.6 0 1 0 1.95-11.03z" fill="rgba(54, 160, 153, 1)"></path>
        <rect width="240" height="240" clip-path="url(&quot;#SvgjsClipPath1496&quot;)" x="447.77" y="338.56" fill="url(&quot;#SvgjsPattern1497&quot;)" transform="rotate(80.15, 567.77, 458.56)"></rect>
        <path d="M1224.02 493.25a5.6 5.6 0 1 0 1.75 11.06 5.6 5.6 0 1 0-1.75-11.06zM1226.52 509.05a5.6 5.6 0 1 0 1.75 11.06 5.6 5.6 0 1 0-1.75-11.06zM1229.02 524.85a5.6 5.6 0 1 0 1.75 11.07 5.6 5.6 0 1 0-1.75-11.07zM1231.52 540.66a5.6 5.6 0 1 0 1.75 11.06 5.6 5.6 0 1 0-1.75-11.06zM1203.21 464.14a5.6 5.6 0 1 0 1.75 11.06 5.6 5.6 0 1 0-1.75-11.06zM1205.72 479.94a5.6 5.6 0 1 0 1.75 11.07 5.6 5.6 0 1 0-1.75-11.07zM1208.22 495.75a5.6 5.6 0 1 0 1.75 11.06 5.6 5.6 0 1 0-1.75-11.06zM1210.72 511.55a5.6 5.6 0 1 0 1.75 11.06 5.6 5.6 0 1 0-1.75-11.06zM1182.41 435.03a5.6 5.6 0 1 0 1.75 11.06 5.6 5.6 0 1 0-1.75-11.06zM1184.91 450.84a5.6 5.6 0 1 0 1.75 11.06 5.6 5.6 0 1 0-1.75-11.06zM1187.41 466.64a5.6 5.6 0 1 0 1.75 11.06 5.6 5.6 0 1 0-1.75-11.06zM1189.91 482.44a5.6 5.6 0 1 0 1.75 11.07 5.6 5.6 0 1 0-1.75-11.07z" stroke="rgba(0, 29, 63, 1)" stroke-width="1.88" stroke-dasharray="3, 3"></path>
        <rect width="336.6" height="336.6" clip-path="url(&quot;#SvgjsClipPath1498&quot;)" x="-108.45" y="361.75" fill="url(&quot;#SvgjsPattern1499&quot;)" transform="rotate(142.49, 59.85, 530.05)"></rect>
        <rect width="287.56" height="287.56" clip-path="url(&quot;#SvgjsClipPath1500&quot;)" x="1044.86" y="276.35" fill="url(&quot;#SvgjsPattern1501&quot;)" transform="rotate(339.68, 1188.64, 420.13)"></rect>
        <path d="M1079.02 219.49a5.6 5.6 0 1 0-10.61-3.57 5.6 5.6 0 1 0 10.61 3.57zM1063.86 214.4a5.6 5.6 0 1 0-10.62-3.57 5.6 5.6 0 1 0 10.62 3.57zM1048.69 209.3a5.6 5.6 0 1 0-10.61-3.57 5.6 5.6 0 1 0 10.61 3.57zM1033.53 204.2a5.6 5.6 0 1 0-10.62-3.57 5.6 5.6 0 1 0 10.62 3.57z" fill="rgba(6, 215, 160, 1)"></path>
    </g>
    <defs>
        <mask id="SvgjsMask1493">
            <rect width="1440" height="560" fill="#ffffff"></rect>
        </mask>
        <pattern x="0" y="0" width="128" height="8" patternUnits="userSpaceOnUse" id="SvgjsPattern1495">
            <rect width="128" height="4" x="0" y="0" fill="rgba(6, 215, 160, 1)"></rect>
            <rect width="128" height="4" x="0" y="4" fill="rgba(0, 0, 0, 0)"></rect>
        </pattern>
        <clipPath id="SvgjsClipPath1494">
            <circle r="32" cx="83.35" cy="41.12"></circle>
        </clipPath>
        <pattern x="0" y="0" width="240" height="6" patternUnits="userSpaceOnUse" id="SvgjsPattern1497">
            <rect width="240" height="3" x="0" y="0" fill="rgba(54, 160, 153, 1)"></rect>
            <rect width="240" height="3" x="0" y="3" fill="rgba(0, 0, 0, 0)"></rect>
        </pattern>
        <clipPath id="SvgjsClipPath1496">
            <circle r="60" cx="567.77" cy="458.56"></circle>
        </clipPath>
        <pattern x="0" y="0" width="9.9" height="9.9" patternUnits="userSpaceOnUse" id="SvgjsPattern1499">
            <path d="M0 9.9L4.95 0L9.9 9.9" stroke="#e73635" fill="none"></path>
        </pattern>
        <clipPath id="SvgjsClipPath1498">
            <circle r="84.15" cx="59.85" cy="530.05"></circle>
        </clipPath>
        <pattern x="0" y="0" width="287.56" height="11.06" patternUnits="userSpaceOnUse" id="SvgjsPattern1501">
            <rect width="287.56" height="5.53" x="0" y="0" fill="rgba(54, 160, 153, 1)"></rect>
            <rect width="287.56" height="5.53" x="0" y="5.53" fill="rgba(0, 0, 0, 0)"></rect>
        </pattern>
        <clipPath id="SvgjsClipPath1500">
            <circle r="71.89" cx="1188.64" cy="420.13"></circle>
        </clipPath>
    </defs>
</svg>