<svg xmlns="http://www.w3.org/2000/svg" version="1.1" xmlns:xlink="http://www.w3.org/1999/xlink" xmlns:svgjs="http://svgjs.dev/svgjs" viewBox="0 0 1422 800"><g stroke-width="1" stroke="#06d7a0" fill="none" stroke-linecap="round"><path d="M 0 840 Q 355.5 -85 711 400 Q 1066.5 885 1422 840" opacity="0.35"></path><path d="M 0 756 Q 355.5 -85 711 400 Q 1066.5 885 1422 756" opacity="0.19"></path><path d="M 0 672 Q 355.5 -85 711 400 Q 1066.5 885 1422 672" opacity="0.08"></path><path d="M 0 588 Q 355.5 -85 711 400 Q 1066.5 885 1422 588" opacity="0.08"></path><path d="M 0 504 Q 355.5 -85 711 400 Q 1066.5 885 1422 504" opacity="0.87"></path><path d="M 0 420 Q 355.5 -85 711 400 Q 1066.5 885 1422 420" opacity="0.80"></path><path d="M 0 336 Q 355.5 -85 711 400 Q 1066.5 885 1422 336" opacity="0.55"></path><path d="M 0 252 Q 355.5 -85 711 400 Q 1066.5 885 1422 252" opacity="0.77"></path><path d="M 0 168 Q 355.5 -85 711 400 Q 1066.5 885 1422 168" opacity="0.91"></path></g></svg>