<svg xmlns="http://www.w3.org/2000/svg" version="1.1" xmlns:xlink="http://www.w3.org/1999/xlink" xmlns:svgjs="http://svgjs.dev/svgjs" width="957" height="369" preserveAspectRatio="none" viewBox="0 0 957 369">
    <g mask="url(&quot;#SvgjsMask1352&quot;)" fill="none">
        <rect width="957" height="369" x="0" y="0" fill="rgba(255, 255, 255, 0)"></rect>
        <path d="M0,222.268C41.563,218.008,81.692,204.111,114.774,178.591C146.175,154.367,167.081,119.794,180.984,82.652C194.198,47.349,190.108,10.051,191.952,-27.599C194.279,-75.119,225.824,-132.777,193.229,-167.434C160.206,-202.547,97.839,-162.146,51.846,-176.57C4.425,-191.442,-25.565,-263.341,-73.747,-251.161C-121.267,-239.148,-118.558,-167.131,-146.042,-126.546C-169.21,-92.335,-207.826,-70.685,-222.198,-31.947C-238.581,12.211,-249.361,62.191,-232.36,106.115C-215.07,150.784,-173.802,182.358,-130.959,203.775C-90.711,223.894,-44.763,226.856,0,222.268" fill="#001D3F"></path>
        <path d="M957 640.26C1006.035 627.8240000000001 1049.172 605.738 1093.625 581.593 1141.837 555.406 1200.888 540.425 1228.305 492.901 1256.348 444.29200000000003 1243.554 384.338 1239.722 328.351 1235.592 268.021 1248.57 196.058 1205.107 154.014 1161.397 111.731 1086.259 144.376 1028.836 124.34899999999999 966.718 102.68400000000003 923.3389999999999 22.766999999999996 858.365 33.08100000000002 794.727 43.18299999999999 765.327 118.31299999999999 729.495 171.866 697.558 219.598 671.961 270.026 661.9870000000001 326.584 651.767 384.535 654.264 443.081 671.7570000000001 499.26599999999996 691.0450000000001 561.215 709.001 635.639 767.165 664.389 825.53 693.239 893.892 656.265 957 640.26" fill="#001D3F"></path>
    </g>
    <defs>
        <mask id="SvgjsMask1352">
            <rect width="957" height="369" fill="#ffffff"></rect>
        </mask>
    </defs>
</svg>