<svg xmlns="http://www.w3.org/2000/svg" version="1.1" xmlns:xlink="http://www.w3.org/1999/xlink" xmlns:svgjs="http://svgjs.dev/svgjs" width="1440" height="560" preserveAspectRatio="none" viewBox="0 0 1440 560">
    <g mask="url(&quot;#SvgjsMask1014&quot;)" fill="none">
        <path d="M1207.07 435.99 a12.05 12.05 0 1 0 24.1 0 a12.05 12.05 0 1 0 -24.1 0z" fill="rgba(231, 54, 53, 1)"></path>
        <path d="M634.77-19.84a39.02 39.02 0 1 0-9.65 77.44z" fill="rgba(231, 54, 53, 1)"></path>
        <path d="M383.33 396.45L417.94 396.45L417.94 444.34L383.33 444.34z" fill="rgba(54, 160, 153, 1)"></path>
        <path d="M292.3 11.33L337.35 11.33L337.35 56.38L292.3 56.38z" stroke="rgba(231, 54, 53, 1)"></path>
        <path d="M368.73 239.67L391.34 239.67L391.34 284.45L368.73 284.45z" stroke="rgba(54, 160, 153, 1)"></path>
        <path d="M1141.68 198.69 a52.64 52.64 0 1 0 105.28 0 a52.64 52.64 0 1 0 -105.28 0z" fill="rgba(6, 215, 160, 1)"></path>
        <path d="M876.98 374.95a15.74 15.74 0 1 0-28.89-12.51z" fill="rgba(54, 160, 153, 1)"></path>
        <path d="M745.91 116.41L788.7 116.41L788.7 159.2L745.91 159.2z" fill="rgba(231, 54, 53, 1)"></path>
        <path d="M748.47 53.71L800.68 53.71L800.68 71.63L748.47 71.63z" stroke="rgba(6, 215, 160, 1)"></path>
        <path d="M70.01 416.31a27.22 27.22 0 1 0-46.17-28.84z" stroke="rgba(0, 29, 63, 1)"></path>
        <path d="M278.42 251.41 a17.9 17.9 0 1 0 35.8 0 a17.9 17.9 0 1 0 -35.8 0z" fill="rgba(231, 54, 53, 1)"></path>
        <path d="M734 227.04L788.97 227.04L788.97 227.83L734 227.83z" stroke="rgba(231, 54, 53, 1)"></path>
        <path d="M533.73 534.6L563.37 534.6L563.37 587.38L533.73 587.38z" stroke="rgba(0, 29, 63, 1)"></path>
        <path d="M784.13 137.29L836.14 137.29L836.14 175.74L784.13 175.74z" fill="rgba(54, 160, 153, 1)"></path>
        <path d="M657.36 185.71L689.12 185.71L689.12 195.68L657.36 195.68z" fill="rgba(0, 29, 63, 1)"></path>
        <path d="M259.14 9.67L304.59 9.67L304.59 25.78L259.14 25.78z" stroke="rgba(231, 54, 53, 1)"></path>
        <path d="M1172.97 543.35L1177.47 543.35L1177.47 562.72L1172.97 562.72z" stroke="rgba(0, 29, 63, 1)"></path>
        <path d="M717.16 547.55L725.92 547.55L725.92 573.5L717.16 573.5z" stroke="rgba(6, 215, 160, 1)"></path>
        <path d="M1234.88 511.46L1255.86 511.46L1255.86 560.68L1234.88 560.68z" stroke="rgba(231, 54, 53, 1)"></path>
        <path d="M816.04 430.49L866.27 430.49L866.27 480.72L816.04 480.72z" stroke="rgba(54, 160, 153, 1)"></path>
        <path d="M887.2 35.44a44.85 44.85 0 1 0-70.24 55.8z" stroke="rgba(6, 215, 160, 1)"></path>
        <path d="M909.62 269.18 a7.31 7.31 0 1 0 14.62 0 a7.31 7.31 0 1 0 -14.62 0z" fill="rgba(231, 54, 53, 1)"></path>
        <path d="M458.59 413.39a32.7 32.7 0 1 0-58.91 28.4z" stroke="rgba(231, 54, 53, 1)"></path>
        <path d="M116.31 415.56L152.91 415.56L152.91 452.16L116.31 452.16z" stroke="rgba(6, 215, 160, 1)"></path>
        <path d="M954.62 385.64L960.9 385.64L960.9 391.92L954.62 391.92z" fill="rgba(6, 215, 160, 1)"></path>
        <path d="M402.79 503.83L430.21 503.83L430.21 531.25L402.79 531.25z" stroke="rgba(6, 215, 160, 1)"></path>
        <path d="M1038.74 86.08L1051.82 86.08L1051.82 134.69L1038.74 134.69z" fill="rgba(0, 29, 63, 1)"></path>
        <path d="M813.98 236.5L829.25 236.5L829.25 287.79L813.98 287.79z" fill="rgba(54, 160, 153, 1)"></path>
        <path d="M113.94 332.47L158.4 332.47L158.4 354.44L113.94 354.44z" fill="rgba(231, 54, 53, 1)"></path>
        <path d="M1184.44 128.74L1220.38 128.74L1220.38 164.68L1184.44 164.68z" stroke="rgba(6, 215, 160, 1)"></path>
        <path d="M215.95 17.7 a10.39 10.39 0 1 0 20.78 0 a10.39 10.39 0 1 0 -20.78 0z" fill="rgba(0, 29, 63, 1)"></path>
        <path d="M344.02 424.81a22.48 22.48 0 1 0-42.04-15.94z" stroke="rgba(54, 160, 153, 1)"></path>
        <path d="M83.93 35.53L105.23 35.53L105.23 56.83L83.93 56.83z" stroke="rgba(54, 160, 153, 1)"></path>
    </g>
    <defs>
        <mask id="SvgjsMask1014">
            <rect width="1440" height="560" fill="#ffffff"></rect>
        </mask>
    </defs>
</svg>