<svg id="wave" style="transform:rotate(180deg); transition: 0.3s" viewBox="0 0 1440 100" version="1.1" xmlns="http://www.w3.org/2000/svg"><defs><linearGradient id="sw-gradient-0" x1="0" x2="0" y1="1" y2="0"><stop stop-color="rgba(1, 18, 39, 1)" offset="0%"></stop><stop stop-color="rgba(1, 18, 39, 1)" offset="100%"></stop></linearGradient></defs><path style="transform:translate(0, 0px); opacity:1" fill="url(#sw-gradient-0)" d="M0,60L48,50C96,40,192,20,288,11.7C384,3,480,7,576,15C672,23,768,37,864,35C960,33,1056,17,1152,11.7C1248,7,1344,13,1440,13.3C1536,13,1632,7,1728,8.3C1824,10,1920,20,2016,23.3C2112,27,2208,23,2304,23.3C2400,23,2496,27,2592,36.7C2688,47,2784,63,2880,68.3C2976,73,3072,67,3168,56.7C3264,47,3360,33,3456,23.3C3552,13,3648,7,3744,3.3C3840,0,3936,0,4032,0C4128,0,4224,0,4320,1.7C4416,3,4512,7,4608,20C4704,33,4800,57,4896,65C4992,73,5088,67,5184,58.3C5280,50,5376,40,5472,33.3C5568,27,5664,23,5760,18.3C5856,13,5952,7,6048,8.3C6144,10,6240,20,6336,23.3C6432,27,6528,23,6624,21.7C6720,20,6816,20,6864,20L6912,20L6912,100L6864,100C6816,100,6720,100,6624,100C6528,100,6432,100,6336,100C6240,100,6144,100,6048,100C5952,100,5856,100,5760,100C5664,100,5568,100,5472,100C5376,100,5280,100,5184,100C5088,100,4992,100,4896,100C4800,100,4704,100,4608,100C4512,100,4416,100,4320,100C4224,100,4128,100,4032,100C3936,100,3840,100,3744,100C3648,100,3552,100,3456,100C3360,100,3264,100,3168,100C3072,100,2976,100,2880,100C2784,100,2688,100,2592,100C2496,100,2400,100,2304,100C2208,100,2112,100,2016,100C1920,100,1824,100,1728,100C1632,100,1536,100,1440,100C1344,100,1248,100,1152,100C1056,100,960,100,864,100C768,100,672,100,576,100C480,100,384,100,288,100C192,100,96,100,48,100L0,100Z"></path></svg>